<?xml version="1.0" encoding="UTF-8" standalone="no"?>
<svg xmlns:rdf="http://www.w3.org/1999/02/22-rdf-syntax-ns#" xmlns="http://www.w3.org/2000/svg" height="71.022mm" width="142.56mm" version="1.1" xmlns:cc="http://creativecommons.org/ns#" xmlns:xlink="http://www.w3.org/1999/xlink" viewBox="0 0 505.14979 251.65318" xmlns:dc="http://purl.org/dc/elements/1.1/">
 <defs>
  <clipPath id="n" clipPathUnits="userSpaceOnUse">
   <path clip-rule="evenodd" d="m79.68 413.18h435.96v-202.14h-435.96v202.14z"/>
  </clipPath>
  <clipPath id="m" clipPathUnits="userSpaceOnUse">
   <path d="m0 841.98h595.2v-841.98h-595.2v841.98z"/>
  </clipPath>
  <linearGradient id="a">
   <stop stop-color="#fff" offset="0"/>
   <stop stop-color="#fff" stop-opacity="0" offset="1"/>
  </linearGradient>
  <linearGradient id="b">
   <stop stop-color="#fff" offset="0"/>
   <stop stop-color="#837356" offset="1"/>
  </linearGradient>
  <linearGradient id="k" y2="35.135" gradientUnits="userSpaceOnUse" y1="1.1058" gradientTransform="translate(.35714 1005.3)" x2="30.702" x1="8.7191">
   <stop stop-color="#729fcf" offset="0"/>
   <stop stop-color="#3465a4" offset="1"/>
  </linearGradient>
  <linearGradient id="j" y2="1039.6" xlink:href="#a" gradientUnits="userSpaceOnUse" y1="1015.4" gradientTransform="translate(0 -4.6001)" x2="42.623" x1="15.536"/>
  <linearGradient id="i" y2="31.795" xlink:href="#b" gradientUnits="userSpaceOnUse" y1="21.437" gradientTransform="matrix(.71907 -.28041 .46212 1.185 -6.21 1005.7)" x2="21.571" x1="21.732"/>
  <linearGradient id="h" y2="31.795" xlink:href="#b" gradientUnits="userSpaceOnUse" y1="21.437" gradientTransform="matrix(-.71907 -.28041 -.46212 1.185 53.825 1005.7)" x2="21.571" x1="21.732"/>
  <linearGradient id="g" x1="23.887" xlink:href="#a" spreadMethod="reflect" gradientUnits="userSpaceOnUse" y1="1040.8" gradientTransform="translate(0 -4.6001)" x2="26.034" y2="1040.7"/>
  <linearGradient id="f" x1="18.929" spreadMethod="reflect" gradientUnits="userSpaceOnUse" y1="1045.3" x2="25.179" y2="1045.5">
   <stop stop-color="#ffd543" offset="0"/>
   <stop stop-color="#ffeca9" offset="1"/>
  </linearGradient>
  <filter id="l" height="1.8308" width="1.2124" y="-.41539" x="-.10621">
   <feGaussianBlur stdDeviation="1.1543757"/>
  </filter>
  <radialGradient id="d" gradientUnits="userSpaceOnUse" cx="-12.895" cy="47.333" r="15.813" gradientTransform="matrix(1 0 0 .38609 0 29.058)">
   <stop offset="0"/>
   <stop stop-opacity=".38938" offset="1"/>
  </radialGradient>
  <radialGradient id="c" gradientUnits="userSpaceOnUse" cx="23.656" cy="18.72" r="15" gradientTransform="matrix(.99940 -.034562 .050507 1.4605 -.57423 997.5)">
   <stop stop-color="#fff" stop-opacity=".33725" offset="0"/>
   <stop stop-color="#729fcf" stop-opacity=".89020" offset="1"/>
  </radialGradient>
  <linearGradient id="e" y2="501.8" xlink:href="#a" gradientUnits="userSpaceOnUse" x2="358.5" y1="501.8" x1="271.59"/>
 </defs>
 <g transform="translate(-57.196 -136.23)">
  <g transform="matrix(1.25 0 0 -1.25 -77.3 659.08)">
   <g clip-path="url(#n)">
    <g clip-path="url(#m)">
     <g transform="translate(215.76,354.8)">
      <path d="m0 0c-4.5 2.7-6.66 10.26-4.8 16.86 1.44 5.28 5.16 8.58 9 7.98 0.9 14.4 9.6 25.02 19.38 23.76 2.28-0.36 4.5-1.26 6.48-2.82 6.12 7.92 14.82 9.72 22.2 4.68 4.44 8.1 12.54 9.36 18.06 2.82 0.3-0.42 0.66-0.84 0.96-1.26 6 7.92 15.24 7.14 20.58-1.68 1.14-1.8 1.98-3.84 2.64-6.06 5.7-0.9 9.9-8.4 9.36-16.86-0.12-1.68-0.42-3.36-0.96-4.92 4.56-8.16 3.72-20.16-1.8-26.76-2.46-2.94-5.58-4.5-8.7-4.32-2.22-12.84-11.1-20.64-19.86-17.4-1.2 0.48-2.34 1.08-3.36 1.92-4.74-14.04-16.32-19.8-25.8-12.84-2.28 1.62-4.26 3.84-5.88 6.6-9.18-6.54-20.1-4.08-27.48 6.24-4.74-3.54-10.5-0.72-12.9 6.24-2.16 6.18-0.9 13.74 2.88 17.82" fill-rule="evenodd" fill="#14759a"/>
     </g>
     <g transform="translate(215.76,354.8)">
      <path stroke-linejoin="round" d="m0 0c-4.5 2.7-6.66 10.26-4.8 16.86 1.44 5.28 5.16 8.58 9 7.98 0.9 14.4 9.6 25.02 19.38 23.76 2.28-0.36 4.5-1.26 6.48-2.82 6.12 7.92 14.82 9.72 22.2 4.68 4.44 8.1 12.54 9.36 18.06 2.82 0.3-0.42 0.66-0.84 0.96-1.26 6 7.92 15.24 7.14 20.58-1.68 1.14-1.8 1.98-3.84 2.64-6.06 5.7-0.9 9.9-8.4 9.36-16.86-0.12-1.68-0.42-3.36-0.96-4.92 4.56-8.16 3.72-20.16-1.8-26.76-2.46-2.94-5.58-4.5-8.7-4.32-2.22-12.84-11.1-20.64-19.86-17.4-1.2 0.48-2.34 1.08-3.36 1.92-4.74-14.04-16.32-19.8-25.8-12.84-2.28 1.62-4.26 3.84-5.88 6.6-9.18-6.54-20.1-4.08-27.48 6.24-4.74-3.54-10.5-0.72-12.9 6.24-2.16 6.18-0.9 13.74 2.88 17.82z" stroke="#fff" stroke-linecap="round" stroke-miterlimit="10" stroke-width=".491" fill="none"/>
     </g>
     <g transform="translate(221.58,354.02)">
      <path stroke-linejoin="round" d="m0 0c-1.98-0.72-4.02-0.48-5.82 0.78" stroke="#fff" stroke-linecap="round" stroke-miterlimit="10" stroke-width=".491" fill="none"/>
     </g>
     <g transform="translate(251.64,328.4)">
      <path stroke-linejoin="round" d="m0 0c0.36-1.44 0.9-2.76 1.62-3.9" stroke="#fff" stroke-linecap="round" stroke-miterlimit="10" stroke-width=".491" fill="none"/>
     </g>
     <g transform="translate(285.72,335.36)">
      <path stroke-linejoin="round" d="m0 0c-0.06-1.62-0.3-3.18-0.78-4.62" stroke="#fff" stroke-linecap="round" stroke-miterlimit="10" stroke-width=".491" fill="none"/>
     </g>
     <g transform="translate(301.8,358.7)">
      <path stroke-linejoin="round" d="m0 0c4.08-0.9 6.9-6.42 6.36-12.42v-0.06" stroke="#fff" stroke-linecap="round" stroke-miterlimit="10" stroke-width=".491" fill="none"/>
     </g>
     <g transform="translate(315.54,372.62)">
      <path stroke-linejoin="round" d="m0 0c1.38 1.02 2.46 2.64 3.12 4.68" stroke="#fff" stroke-linecap="round" stroke-miterlimit="10" stroke-width=".491" fill="none"/>
     </g>
     <g transform="translate(249,397.52)">
      <path stroke-linejoin="round" d="m0 0c-0.9 1.26-1.98 2.34-3.18 3.06" stroke="#fff" stroke-linecap="round" stroke-miterlimit="10" stroke-width=".491" fill="none"/>
     </g>
    </g>
   </g>
  </g>
  <g font-size="12.59px" font-family="&apos;Times New Roman&apos;">
   <text transform="scale(.92603 1.0799)" y="193.45367" x="235.34392" fill="#e7f1fa">
    <tspan x="235.34392" y="193.45367"/>
   </text>
   <text transform="scale(.92603 1.0799)" y="193.45367" x="277.61987" fill="#e7f1fa">
    <tspan x="277.61987" y="193.45367"/>
   </text>
   <text transform="scale(.92603 1.0799)" y="350.96851" x="79.465294" fill="#0084b9">
    <tspan x="79.465294" y="350.96851"/>
   </text>
  </g>
  <g transform="matrix(1.25 0 0 -1.25 476.84 339.86)">
   <path d="m0 0c0-1.2 0.78-2.28 1.8-2.46 0 0 6-0.9 10.44-0.9s10.38 0.9 10.38 0.9c1.02 0.18 1.86 1.26 1.86 2.46v47.34c0 1.2-0.84 2.34-1.86 2.46 0 0-5.82 0.96-10.38 0.96-4.44 0-10.44-0.96-10.44-0.96-1.02-0.18-1.8-1.26-1.8-2.46v-47.34" fill-rule="evenodd" fill="#0083b9"/>
  </g>
  <g transform="matrix(1.25 0 0 -1.25 476.84 339.86)">
   <path stroke-linejoin="round" d="m0 0c0-1.2 0.78-2.28 1.8-2.46 0 0 6-0.9 10.44-0.9s10.38 0.9 10.38 0.9c1.02 0.18 1.86 1.26 1.86 2.46v47.34c0 1.2-0.84 2.34-1.86 2.46 0 0-5.82 0.96-10.38 0.96-4.44 0-10.44-0.96-10.44-0.96-1.02-0.18-1.8-1.26-1.8-2.46v-47.34z" stroke="#fff" stroke-linecap="round" stroke-miterlimit="10" stroke-width=".491" fill="none"/>
  </g>
  <path d="m479.09 335.73h26.025v-49.65h-26.025v49.65z" fill="#1cade4"/>
  <path stroke-linejoin="round" d="m479.09 335.73h26.025v-49.65h-26.025v49.65z" stroke="#fff" stroke-linecap="round" stroke-miterlimit="10" stroke-width=".61375" fill="none"/>
  <g transform="matrix(1.25 0 0 -1.25 489.44 339.48)">
   <path d="m0 0c0 0.54-0.42 0.96-0.84 0.96-0.48 0-0.84-0.42-0.84-0.96s0.36-0.96 0.84-0.96c0.42 0 0.84 0.42 0.84 0.96zm3 0c0 0.54-0.42 0.96-0.84 0.96-0.48 0-0.84-0.42-0.84-0.96s0.36-0.96 0.84-0.96c0.42 0 0.84 0.42 0.84 0.96zm3 0c0 0.54-0.42 0.96-0.84 0.96-0.48 0-0.84-0.42-0.84-0.96s0.36-0.96 0.84-0.96c0.42 0 0.84 0.42 0.84 0.96" fill-rule="evenodd" fill="#fff"/>
  </g>
  <g transform="matrix(1.25 0 0 -1.25 488.31 281.96)">
   <path stroke-linejoin="round" d="m0 0h6.12" stroke="#fff" stroke-linecap="round" stroke-miterlimit="10" stroke-width=".491" fill="none"/>
  </g>
  <g transform="matrix(1.25 0 0 -1.25 381.96 364.83)">
   <path d="m0 0h46.38v5.64l-3.96 7.86h-38.7l-3.72-7.86v-5.64zm42.54 14.76v24.78c0 2.52-1.74 4.5-3.9 4.5h-31.02c-2.16 0-3.9-1.98-3.9-4.5v-24.78h38.82" fill-rule="evenodd" fill="#0083b9"/>
  </g>
  <g transform="matrix(1.25 0 0 -1.25 381.96 364.83)">
   <path stroke-linejoin="round" d="m0 0h46.38v5.64l-3.96 7.86h-38.7l-3.72-7.86v-5.64z" stroke="#fff" stroke-linecap="round" stroke-miterlimit="10" stroke-width=".491" fill="none"/>
  </g>
  <g transform="matrix(1.25 0 0 -1.25 435.14 346.38)">
   <path stroke-linejoin="round" d="m0 0v24.78c0 2.52-1.74 4.5-3.9 4.5h-31.02c-2.16 0-3.9-1.98-3.9-4.5v-24.78h38.82z" stroke="#fff" stroke-linecap="round" stroke-miterlimit="10" stroke-width=".491" fill="none"/>
  </g>
  <g transform="matrix(1.25 0 0 -1.25 389.99 352.08)">
   <path d="m0 0-1.86-3.9h37.2l-1.92 3.9h-33.42" fill-rule="evenodd" fill="#fff"/>
  </g>
  <path d="m391.34 340.46h39.225v-25.425h-39.225v25.425z" fill="#1cade4"/>
  <path stroke-linejoin="round" d="m391.34 340.46h39.225v-25.425h-39.225v25.425z" stroke="#fff" stroke-linecap="round" stroke-miterlimit="10" stroke-width=".61375" fill="none"/>
  <text transform="scale(.92603 1.0799)" font-size="12.59px" y="352.8884" x="414.03992" font-family="&apos;Times New Roman&apos;" fill="#00212f">
   <tspan x="414.03992" y="352.8884"/>
  </text>
  <g transform="matrix(1.25 0 0 -1.25 115.26 287.58)">
   <path stroke-linejoin="round" d="m0 0 59.22 37.5" stroke="#0083b9" stroke-linecap="round" stroke-miterlimit="10" stroke-width="2.945" fill="none"/>
  </g>
  <g transform="matrix(1.25 0 0 -1.25 186.96 249.78)">
   <path stroke-linejoin="round" d="m0 0 1.86 7.26-6.24 2.16" stroke="#0083b9" stroke-linecap="round" stroke-miterlimit="10" stroke-width="2.945" fill="none"/>
  </g>
  <g transform="matrix(1.25 0 0 -1.25 322.34 212.88)">
   <path stroke-linejoin="round" d="m0 0 112.26-64.38" stroke="#0083b9" stroke-linecap="round" stroke-miterlimit="10" stroke-width="2.945" fill="none"/>
  </g>
  <g transform="matrix(1.25 0 0 -1.25 463.86 286.61)">
   <path d="m0 0 10.38-11.88-14.4 2.28 4.02 9.6" fill-rule="evenodd" fill="#0083b9"/>
  </g>
  <g transform="matrix(1.25 0 0 -1.25 297.06 245.36)">
   <path stroke-linejoin="round" d="m0 0 65.04-52.5" stroke="#0083b9" stroke-linecap="round" stroke-miterlimit="10" stroke-width="2.945" fill="none"/>
  </g>
  <g transform="matrix(1.25 0 0 -1.25 380.46 304.53)">
   <path d="m0 0 4.92-10.5-10.14 1.68 5.22 8.82" fill-rule="evenodd" fill="#0083b9"/>
  </g>
  <g transform="matrix(1.25 0 0 -1.25 320.61 172.23)">
   <path stroke-linejoin="round" d="m0 0 130.5-25.92" stroke="#0083b9" stroke-linecap="round" stroke-miterlimit="10" stroke-width="2.945" fill="none"/>
  </g>
  <g transform="matrix(1.25 0 0 -1.25 483.29 197.73)">
   <path d="m0 0 12.84-7.98-14.4-2.58 1.56 10.56" fill-rule="evenodd" fill="#0083b9"/>
  </g>
  <g transform="matrix(1.4762 0 0 1.4762 483.77 -1298.5)">
   <g transform="translate(.17227 -.14017)">
    <ellipse opacity=".19283" rx="13.043" transform="matrix(.87934 0 0 .87934 35.072 1006.5)" ry="3.3348" filter="url(#l)" cy="47.333" cx="-12.895" fill="url(#d)"/>
    <g transform="matrix(.87934 0 0 .87934 2.6194 121.64)">
     <path d="m21.035 1049.4h6c0 4-6 4-6 0z" stroke="#5a5249" stroke-width="1px" fill="#d0bfac"/>
     <path stroke-linejoin="bevel" d="m17.362 1040.4c4.1669-2.946 8.2706-2.8962 12.501 0 0.04667 1.0552 0.10078 1.8872-1.6071 2.4148 2.3909 0.2047 2.2071 1.9163 0.35714 2.8572 2.0521 0.9877 2.7651 1.6946 1.25 3.0962-4.9037 3.3991-7.8229 3.2821-12.501-0.045-0.83319-0.66-0.22222-1.5596 2.0536-1.9356-2.5859-0.4353-2.6813-2.8088-0.17858-3.1696-1.9932-1.2189-1.8069-2.1317-1.875-3.2184z" stroke="#d59600" stroke-linecap="square" fill="none"/>
     <g>
      <path d="m17.804 1040.7c4.1669-2.946 8.0945-2.4059 11.585-0.032 0.14137 0.8184-0.27803 1.5083-1.1178 2.1622 2.4066 1.057 0.89706 2.5003 0.1993 2.9835 2.2573 1.3191 2.1812 1.663 0.66601 3.0646-5.2509 3.1939-7.8229 1.7669-10.575 0.3023-1.1331-0.9599-2.0216-1.1177 0.9645-2.3302-2.3175-1.1772-2.0657-2.3353-0.09966-3.3432-1.3499-1.07-1.5386-1.7451-1.6225-2.8077z" fill="url(#f)"/>
      <path opacity="0.26" d="m24.013 1005.6c-8.008 0-14.5 6.492-14.5 14.5 0 3.4078 1.1884 6.5247 3.1562 9 0.009 0.011 0.02223 0.02 0.03125 0.031 3.0848 5.1457 3.3723 6.1735 3.9062 8.25 0.21377 0.8314 0.45657 2.5914 1.2812 3.4063 1.8461 1.8242 9.1157 2.3353 11.531 0 2.0691-4.148 3.5291-8.7439 5.875-11.625 2.0004-2.4857 3.2188-5.6235 3.2188-9.0625 0-8.008-6.492-14.5-14.5-14.5z" fill="#ffc803"/>
      <path d="m24.013 1005.6c-8.008 0-14.5 6.492-14.5 14.5 0 3.4078 1.1884 6.5247 3.1563 9 0.009 0.011 0.02223 0.02 0.03125 0.031 3.0848 5.1457 3.3723 6.1735 3.9062 8.25 0.21377 0.8314 0.45657 2.5914 1.2812 3.4063 1.8461 1.8242 9.1157 2.3353 11.531 0 2.0691-4.148 3.5291-8.7439 5.875-11.625 2.0004-2.4857 3.2188-5.6235 3.2188-9.0625 0-8.008-6.492-14.5-14.5-14.5z" stroke="url(#k)" stroke-width="1.0005" fill="url(#c)"/>
     </g>
     <path opacity=".75" d="m24.3 1006.5c-7.7887 0.089-13.811 6.0526-13.799 13.897 0.0047 3.2885 1.4722 6.2125 2.8964 8.0208 1.2555 1.8218 3.3121 5.4871 4.0109 8.3928 0.38898 0.5498 0.42625 2.5128 1.1292 3.2545 2.0259 1.4954 7.7517 1.9539 10.164 0.089 1.9317-4.0027 3.2939-8.4053 5.484-11.186 1.8295-2.2157 3.1534-4.2724 3.3845-8.7004 0.02317-7.2372-5.4716-13.21-13.269-13.768z" stroke="url(#j)" fill="none"/>
     <g stroke-linecap="round" transform="translate(.20586 -3.4566)" fill="none">
      <path d="m18.69 1025.9 3.4247 8.782" stroke="url(#i)"/>
      <path d="m28.925 1025.9-3.425 8.8" stroke="url(#h)"/>
      <path stroke-linejoin="round" d="m18.728 1025.9c1.0975 0.1673 2.5585-0.051 3.3482-1.2723 1.0495 0.5915 2.1224 0.9725 3.3482-0.022 0.79329 0.7468 1.8776 1.3589 3.4821 1.2946" stroke="#fff" stroke-width="1px"/>
     </g>
     <g>
      <path opacity=".5" stroke-linejoin="round" d="m20.725 1040.9 0.15264-8.77c1.8754-1.6856 4.3546-1.6457 6.4241 0l-0.05887 8.77" stroke="#d3cdc2" stroke-linecap="round" stroke-width="1px" fill="url(#g)"/>
      <ellipse opacity="0.37" rx="6.4397" transform="matrix(1.0883 -.49096 .51575 1.1433 -1.588 1004.4)" ry="5.2402" cy="15.549" cx="13.321" fill="#fff"/>
      <path d="m19.538 39.271c1.2973 0.87453 3.1392 1.4027 8.8164 2.1095-4.4205 0.49526-8.4085-0.6312-8.8164-2.1095z" transform="translate(0 1004.4)" fill="#d59600"/>
      <path d="m19.838 1046.7c1.2973 0.8746 3.1392 1.4028 8.8164 2.1095-4.4205 0.4953-8.4085-0.6312-8.8164-2.1095z" fill="#d59600"/>
     </g>
    </g>
   </g>
   <text style="word-spacing:0px;letter-spacing:0px;text-anchor:middle;text-align:center" font-weight="bold" transform="translate(0 1004.4)" line-height="125%" xml:space="preserve" font-size="40px" y="46.073212" x="-24.158966" font-family="Sans" fill="#000000"><tspan y="46.073212" x="-24.158966"/></text>
  </g>
  <g transform="matrix(.13994 0 0 .13994 52.028 240.23)">
   <path stroke-linejoin="round" d="m235.27 62.451c-31.657 0-57.156 26.712-57.156 59.915v689.25c0 33.203 25.499 59.915 57.156 59.915h157.16c31.657 0 57.125-26.712 57.125-59.915v-689.25c0-33.203-25.468-59.915-57.125-59.915h-157.16zm78.562 22.157c9.5652 0 17.344 8.1258 17.344 18.158 0.00002 10.032-7.7786 18.191-17.344 18.191-9.5651 0-17.312-8.1585-17.312-18.191 0.00002-10.032 7.7473-18.158 17.312-18.158z" stroke="#000" stroke-width="5.1207" fill="#d0d07f"/>
   <g stroke="#000" fill="none">
    <path d="m261.8 286.89h165.22" stroke-width="1.0925px"/>
    <path d="m198.21 332.96h165.77" stroke-width="1.0943px"/>
    <path d="m261.8 379.04h165.22" stroke-width="1.0925px"/>
    <path d="m198.21 425.12h165.77" stroke-width="1.0943px"/>
    <path d="m261.8 471.19h165.22" stroke-width="1.0925px"/>
    <path d="m198.21 517.27h165.77" stroke-width="1.0943px"/>
    <path d="m261.8 563.35h165.22" stroke-width="1.0925px"/>
    <path d="m198.21 609.42h165.77" stroke-width="1.0943px"/>
    <path d="m244.8 655.5h187.26" stroke-width="1.1631px"/>
    <path d="m198.21 701.57h165.77" stroke-width="1.0943px"/>
    <path d="m198.21 240.81h165.77" stroke-width="1.0943px"/>
   </g>
   <g stroke-linejoin="round" transform="matrix(1 0 0 1.0593 -1.2102 -48.703)" stroke="#000">
    <path d="m315.06 184.38c-12.654 0-22.844 10.189-22.844 22.844v535.59c0 0.47084 0.12844 0.91139 0.15625 1.375-11.012 7.3441-18.281 19.842-18.281 34.062 0 22.609 18.36 40.969 40.969 40.969s40.938-18.36 40.938-40.969c0-14.205-7.2572-26.684-18.25-34.031 0.0291-0.47385 0.15625-0.92483 0.15625-1.4062v-535.59c0-12.654-10.189-22.844-22.844-22.844z" stroke-width="5" fill="url(#e)"/>
    <path d="m315.06 459.27c-12.654 0-22.844-9.5059-22.844 3.1484v280.4c0 0.47084 0.12844 0.91139 0.15625 1.375-11.012 7.3441-18.281 19.842-18.281 34.062 0 22.609 18.36 40.969 40.969 40.969s40.938-18.36 40.938-40.969c0-14.205-7.2572-26.684-18.25-34.031 0.0291-0.47385 0.15625-0.92483 0.15625-1.4062v-280.4c0-12.654-10.189-3.1484-22.844-3.1484z" fill-opacity=".56542" stroke-width="3.6" fill="#ec0000"/>
   </g>
   <g>
    <path d="m382.63 281.68h-4.1328v-27.829l-5.6152 3.4141v-3.8184l5.8398-3.5938h3.9082v31.827m21.315-32.299c3.2793 0.00003 5.7575 1.4226 7.4346 4.2676 1.6771 2.8451 2.5156 6.933 2.5156 12.264-0.00002 5.2559-0.83856 9.2988-2.5156 12.129-1.6771 2.8301-4.1553 4.2451-7.4346 4.2451-3.2643 0-5.735-1.4225-7.4121-4.2676-1.6771-2.845-2.5156-6.8805-2.5156-12.106 0-5.2858 0.83854-9.3587 2.5156-12.219 1.6771-2.875 4.1478-4.3125 7.4121-4.3125m0 29.581c1.8717 0 3.2718-1.0107 4.2002-3.0322 0.94335-2.0364 1.415-5.3756 1.415-10.018-0.00001-4.6868-0.47169-8.041-1.415-10.062-0.9284-2.0364-2.3285-3.0547-4.2002-3.0547-1.8418 0.00003-3.2269 0.98831-4.1553 2.9648-0.9284 1.9616-1.3926 5.3457-1.3926 10.152-0.00001 4.7468 0.46418 8.1084 1.3926 10.085 0.92837 1.9766 2.3135 2.9648 4.1553 2.9648m23.898-29.581c3.2793 0.00003 5.7575 1.4226 7.4346 4.2676 1.6771 2.8451 2.5156 6.933 2.5156 12.264-0.00002 5.2559-0.83856 9.2988-2.5156 12.129-1.6771 2.8301-4.1553 4.2451-7.4346 4.2451-3.2643 0-5.735-1.4225-7.4121-4.2676-1.6771-2.845-2.5156-6.8805-2.5156-12.106 0-5.2858 0.83854-9.3587 2.5156-12.219 1.6771-2.875 4.1478-4.3125 7.4121-4.3125m0 29.581c1.8717 0 3.2718-1.0107 4.2002-3.0322 0.94334-2.0364 1.415-5.3756 1.415-10.018-0.00002-4.6868-0.4717-8.041-1.415-10.062-0.9284-2.0364-2.3285-3.0547-4.2002-3.0547-1.8418 0.00003-3.2269 0.98831-4.1553 2.9648-0.92839 1.9616-1.3926 5.3457-1.3926 10.152 0 4.7468 0.46419 8.1084 1.3926 10.085 0.92838 1.9766 2.3135 2.9648 4.1553 2.9648"/>
    <path d="m218.23 317.24c-0.53907 0.46877-1.3008 0.87306-2.2852 1.2129-0.97267 0.33985-1.8047 0.50977-2.4961 0.50976-2.1562 0.00001-3.9258-0.67382-5.3086-2.0215-1.3828-1.3594-2.0742-3.123-2.0742-5.291 0-2.3086 0.68555-4.2422 2.0566-5.8008 1.3828-1.5586 3.1699-2.3379 5.3613-2.3379 2.6133 0.00002 4.623 1.1426 6.0293 3.4277 1.4062 2.2852 2.1094 5.332 2.1094 9.1406-0.00002 3.6914-0.85548 6.8145-2.5664 9.3691-1.6992 2.543-4.002 3.8144-6.9082 3.8144-1.9805 0-3.7324-0.32812-5.2559-0.98437l0.58008-2.584c1.6055 0.64454 3.1406 0.9668 4.6055 0.9668 1.875 0 3.3516-0.82617 4.4297-2.4785 1.0898-1.6523 1.664-3.9668 1.7226-6.9434m-0.0703-2.8476c-0.00001-2.2969-0.39845-4.2598-1.1953-5.8887-0.79689-1.6406-1.8867-2.4609-3.2695-2.4609-1.2774 0.00002-2.3145 0.49807-3.1113 1.4941-0.78516 0.9844-1.1777 2.25-1.1777 3.7969s0.35742 2.7891 1.0723 3.7266c0.72656 0.92579 1.7402 1.3887 3.041 1.3887 0.7617 0.00001 1.5586-0.18163 2.3906-0.54492 0.84374-0.36327 1.5351-0.80858 2.0742-1.3359l0.17578-0.17578m14.59-10.881c2.5664 0.00002 4.5058 1.1133 5.8184 3.3398 1.3125 2.2266 1.9687 5.4258 1.9688 9.5977-0.00001 4.1133-0.65626 7.2774-1.9688 9.4922s-3.252 3.3223-5.8184 3.3223c-2.5547 0-4.4883-1.1133-5.8008-3.3398-1.3125-2.2266-1.9688-5.3848-1.9688-9.4746 0-4.1367 0.65625-7.3242 1.9688-9.5625 1.3125-2.25 3.2461-3.375 5.8008-3.375m0 23.15c1.4648 0 2.5605-0.79101 3.2871-2.373 0.73827-1.5937 1.1074-4.207 1.1074-7.8398-0.00002-3.668-0.36916-6.293-1.1074-7.875-0.72657-1.5937-1.8223-2.3906-3.2871-2.3906-1.4414 0.00003-2.5254 0.77346-3.252 2.3203-0.72657 1.5352-1.0898 4.1836-1.0898 7.9453-0.00001 3.7148 0.36327 6.3457 1.0898 7.8926 0.72656 1.5469 1.8105 2.3203 3.252 2.3203"/>
    <path d="m221.72 398.68-9.8613 22.939h-3.0762l9.334-21.498h-11.602v-3.3047h15.205v1.8633m11.021-2.3379c2.5664 0.00002 4.5058 1.1133 5.8184 3.3398 1.3125 2.2266 1.9687 5.4258 1.9688 9.5977-0.00001 4.1133-0.65626 7.2774-1.9688 9.4922s-3.252 3.3223-5.8184 3.3223c-2.5547 0-4.4883-1.1133-5.8008-3.3398-1.3125-2.2266-1.9688-5.3848-1.9688-9.4746 0-4.1367 0.65625-7.3242 1.9688-9.5625 1.3125-2.25 3.2461-3.375 5.8008-3.375m0 23.15c1.4648 0 2.5605-0.79101 3.2871-2.373 0.73827-1.5937 1.1074-4.207 1.1074-7.8398-0.00002-3.668-0.36916-6.293-1.1074-7.875-0.72657-1.5937-1.8223-2.3906-3.2871-2.3906-1.4414 0.00003-2.5254 0.77346-3.252 2.3203-0.72657 1.5352-1.0898 4.1836-1.0898 7.9453-0.00001 3.7148 0.36327 6.3457 1.0898 7.8926 0.72656 1.5469 1.8105 2.3203 3.252 2.3203"/>
    <path d="m202.19 495.3c1.3027-0.26951 2.4033-0.40428 3.3018-0.40429 3.0696 0.00001 5.473 0.92091 7.21 2.7627 1.7519 1.8418 2.6279 4.1703 2.6279 6.9854-0.00002 2.8301-1.0557 5.2708-3.167 7.3223-2.1113 2.0514-4.582 3.0772-7.4121 3.0772s-5.2634-0.47917-7.2998-1.4375l0.92089-3.2568c2.0065 0.88347 4.1702 1.3252 6.4912 1.3252 1.8268 0 3.3167-0.62891 4.4697-1.8867 1.153-1.2728 1.7295-3.0322 1.7295-5.2783-0.00001-1.9316-0.53159-3.459-1.5947-4.582-1.0632-1.123-2.4483-1.6846-4.1553-1.6846-1.3327 0.00002-2.6055 0.26206-3.8184 0.78614l-2.5381-1.1455v-15.139h15.094v4.1328h-11.859v8.4228m28.391-13.162c3.2793 0.00003 5.7575 1.4226 7.4346 4.2676 1.6771 2.8451 2.5156 6.933 2.5156 12.264-0.00002 5.2559-0.83856 9.2988-2.5156 12.129-1.6771 2.8301-4.1553 4.2451-7.4346 4.2451-3.2643 0-5.735-1.4225-7.4121-4.2676-1.6771-2.845-2.5156-6.8805-2.5156-12.106 0-5.2858 0.83854-9.3587 2.5156-12.219 1.6771-2.875 4.1478-4.3125 7.4121-4.3125m0 29.581c1.8717 0 3.2718-1.0107 4.2002-3.0322 0.94335-2.0364 1.415-5.3756 1.415-10.018-0.00001-4.6868-0.47169-8.041-1.415-10.062-0.9284-2.0364-2.3285-3.0547-4.2002-3.0547-1.8418 0.00002-3.2269 0.9883-4.1553 2.9648-0.92839 1.9616-1.3926 5.3457-1.3926 10.152-0.00001 4.7468 0.46418 8.1084 1.3926 10.085 0.92838 1.9766 2.3135 2.9648 4.1553 2.9648"/>
    <path d="m215.78 592.11c1.5 0.35158 2.707 1.0664 3.6211 2.1445 0.91404 1.0664 1.3711 2.2969 1.3711 3.6914-0.00002 2.2031-0.8672 4.0547-2.6016 5.5547-1.7344 1.4883-3.791 2.2324-6.1699 2.2324-2.0391 0-3.9024-0.44531-5.5898-1.3359l0.72071-2.5312c1.6758 0.79688 3.334 1.1953 4.9746 1.1953 1.582 0.00001 2.8711-0.43945 3.8672-1.3184 0.99608-0.87891 1.4941-2.0859 1.4941-3.6211-0.00001-1.3359-0.56837-2.4375-1.7051-3.3047-1.1367-0.86717-2.6192-1.3008-4.4473-1.3008h-0.65039v-2.6191h0.10547c1.7226 0.00002 3.1758-0.41014 4.3594-1.2305 1.1953-0.83201 1.793-1.9218 1.793-3.2695-0.00001-1.125-0.4336-2.0273-1.3008-2.707-0.8672-0.69138-1.9922-1.0371-3.375-1.0371-1.2539 0.00002-2.7305 0.36916-4.4297 1.1074l-0.50976-2.6191c1.793-0.77341 3.4863-1.1601 5.0801-1.1602 2.2734 0.00002 4.1484 0.60354 5.625 1.8105 1.4883 1.1953 2.2324 2.7188 2.2324 4.5703-0.00002 1.2656-0.44533 2.4492-1.3359 3.5508-0.89064 1.1016-1.9336 1.7871-3.1289 2.0566v0.14062m16.963-12.129c2.5664 0.00002 4.5058 1.1133 5.8184 3.3398 1.3125 2.2266 1.9687 5.4258 1.9688 9.5977-0.00001 4.1133-0.65626 7.2774-1.9688 9.4922s-3.252 3.3223-5.8184 3.3223c-2.5547 0-4.4883-1.1133-5.8008-3.3398-1.3125-2.2266-1.9688-5.3848-1.9688-9.4746 0-4.1367 0.65625-7.3242 1.9688-9.5625 1.3125-2.25 3.2461-3.375 5.8008-3.375m0 23.15c1.4648 0 2.5605-0.79102 3.2871-2.373 0.73827-1.5937 1.1074-4.207 1.1074-7.8398-0.00002-3.668-0.36916-6.293-1.1074-7.875-0.72657-1.5937-1.8223-2.3906-3.2871-2.3906-1.4414 0.00002-2.5254 0.77346-3.252 2.3203-0.72657 1.5352-1.0898 4.1836-1.0898 7.9453-0.00001 3.7148 0.36327 6.3457 1.0898 7.8926 0.72656 1.5469 1.8105 2.3203 3.252 2.3203"/>
    <path d="m216.06 698.09h-3.2344v-21.779l-4.3945 2.6719v-2.9883l4.5703-2.8125h3.0586v24.908m16.682-25.277c2.5664 0.00002 4.5058 1.1133 5.8184 3.3398 1.3125 2.2266 1.9687 5.4258 1.9688 9.5977-0.00001 4.1133-0.65626 7.2773-1.9688 9.4922-1.3125 2.2148-3.252 3.3223-5.8184 3.3223-2.5547 0-4.4883-1.1133-5.8008-3.3398-1.3125-2.2266-1.9688-5.3848-1.9688-9.4746 0-4.1367 0.65625-7.3242 1.9688-9.5625 1.3125-2.25 3.2461-3.375 5.8008-3.375m0 23.15c1.4648 0 2.5605-0.79102 3.2871-2.373 0.73827-1.5937 1.1074-4.207 1.1074-7.8398-0.00002-3.668-0.36916-6.293-1.1074-7.875-0.72657-1.5937-1.8223-2.3906-3.2871-2.3906-1.4414 0.00002-2.5254 0.77346-3.252 2.3203-0.72657 1.5352-1.0898 4.1836-1.0898 7.9453-0.00001 3.7148 0.36327 6.3457 1.0898 7.8926 0.72656 1.5469 1.8105 2.3203 3.252 2.3203"/>
    <path d="m444.05 611.48h-15.723v-2.6758c3.9323-4.2969 6.4648-7.1419 7.5977-8.5352 1.1458-1.3932 2.0898-2.8516 2.832-4.375 0.75519-1.5364 1.1328-3.0729 1.1328-4.6094-0.00001-1.4453-0.48178-2.6237-1.4453-3.5352-0.95053-0.92445-2.2136-1.3867-3.7891-1.3867-1.4323 0.00003-3.2292 0.41018-5.3906 1.2305l-0.56641-2.8711c2.0312-0.88539 4.1927-1.3281 6.4844-1.3281 2.539 0.00003 4.5833 0.70966 6.1328 2.1289 1.5625 1.4063 2.3437 3.2878 2.3438 5.6445-0.00002 1.5495-0.35158 3.0664-1.0547 4.5508-0.70314 1.4714-1.6276 2.9232-2.7734 4.3555-1.1458 1.4193-3.418 4.0365-6.8164 7.8516h11.035v3.5547m13.379-28.086c2.8516 0.00003 5.0065 1.237 6.4648 3.7109 1.4583 2.474 2.1875 6.0287 2.1875 10.664-0.00002 4.5703-0.72919 8.0859-2.1875 10.547-1.4584 2.4609-3.6133 3.6914-6.4648 3.6914-2.8386 0-4.987-1.237-6.4453-3.7109-1.4583-2.474-2.1875-5.9831-2.1875-10.527 0-4.5963 0.72916-8.138 2.1875-10.625 1.4583-2.5 3.6068-3.75 6.4453-3.75m0 25.723c1.6276 0 2.845-0.87891 3.6524-2.6367 0.82029-1.7708 1.2304-4.6745 1.2305-8.7109-0.00002-4.0755-0.41018-6.9922-1.2305-8.75-0.80731-1.7708-2.0248-2.6562-3.6524-2.6562-1.6016 0.00003-2.806 0.8594-3.6133 2.5781-0.8073 1.7058-1.2109 4.6484-1.2109 8.8281 0 4.1276 0.40364 7.0508 1.2109 8.7695 0.80729 1.7188 2.0117 2.5781 3.6133 2.5781" transform="scale(.93930 1.0646)"/>
    <path d="m418.01 552.3h-3.3984v6.3672h-3.5938v-6.3672h-11.973v-2.5586l10.449-18.633h5.1172v18.047h3.3984v3.1445m-6.9922-3.1445v-14.961l-8.5352 14.961h8.5352m18.125-18.574c2.8516 0.00003 5.0065 1.237 6.4648 3.7109 1.4583 2.474 2.1875 6.0287 2.1875 10.664-0.00002 4.5703-0.72918 8.0859-2.1875 10.547-1.4584 2.4609-3.6133 3.6914-6.4648 3.6914-2.8386 0-4.987-1.237-6.4453-3.7109-1.4583-2.474-2.1875-5.9831-2.1875-10.527-0.00001-4.5963 0.72916-8.138 2.1875-10.625 1.4583-2.5 3.6068-3.75 6.4453-3.75m0 25.723c1.6276 0 2.845-0.87891 3.6523-2.6367 0.8203-1.7708 1.2304-4.6745 1.2305-8.7109-0.00002-4.0755-0.41017-6.9922-1.2305-8.75-0.8073-1.7708-2.0248-2.6562-3.6523-2.6562-1.6016 0.00003-2.806 0.8594-3.6133 2.5781-0.8073 1.7058-1.211 4.6484-1.2109 8.8281-0.00001 4.1276 0.40364 7.0508 1.2109 8.7695 0.80728 1.7188 2.0117 2.5781 3.6133 2.5781"/>
    <path d="m403.77 453.61c0.59896-0.53384 1.4128-0.98306 2.4414-1.3477 1.0286-0.37759 1.9206-0.56639 2.6758-0.5664 2.4088 0.00001 4.4075 0.75522 5.9961 2.2656 1.6015 1.5104 2.4023 3.4636 2.4023 5.8594-0.00002 2.6302-0.70966 4.7982-2.1289 6.5039-1.4193 1.6927-3.3203 2.5391-5.7031 2.5391-2.9688 0-5.2865-1.3216-6.9531-3.9648-1.6667-2.6432-2.5-5.9766-2.5-10 0-4.2969 0.86589-7.8125 2.5977-10.547 1.7448-2.7344 4.1862-4.1015 7.3242-4.1016 2.2005 0.00003 4.1471 0.36461 5.8398 1.0938l-0.625 2.8711c-1.7839-0.71612-3.4961-1.0742-5.1367-1.0742-4.0495 0.00002-6.1263 3.4896-6.2305 10.469m0.0781 3.1641c-0.00001 2.3958 0.49478 4.5443 1.4844 6.4453 1.0026 1.888 2.2917 2.832 3.8672 2.832 1.3672 0.00001 2.4349-0.52734 3.2031-1.582 0.78123-1.0677 1.1719-2.5 1.1719-4.2969-0.00001-1.6797-0.4297-3.0469-1.2891-4.1016-0.85939-1.0547-2.0182-1.582-3.4766-1.582-1.7839 0.00002-3.4375 0.76174-4.9609 2.2852m25.293-16.523c2.8516 0.00003 5.0065 1.237 6.4648 3.7109 1.4583 2.474 2.1875 6.0287 2.1875 10.664-0.00002 4.5703-0.72918 8.086-2.1875 10.547-1.4584 2.4609-3.6133 3.6914-6.4648 3.6914-2.8386 0-4.987-1.237-6.4453-3.7109-1.4583-2.474-2.1875-5.9831-2.1875-10.527-0.00001-4.5963 0.72916-8.138 2.1875-10.625 1.4583-2.5 3.6068-3.75 6.4453-3.75m0 25.723c1.6276 0 2.845-0.8789 3.6523-2.6367 0.8203-1.7708 1.2304-4.6745 1.2305-8.7109-0.00002-4.0755-0.41017-6.9922-1.2305-8.75-0.8073-1.7708-2.0248-2.6562-3.6523-2.6562-1.6016 0.00003-2.806 0.8594-3.6133 2.5781-0.8073 1.7058-1.211 4.6484-1.2109 8.8281-0.00001 4.1276 0.40364 7.0508 1.2109 8.7695 0.80728 1.7188 2.0117 2.5781 3.6133 2.5781"/>
    <path d="m412.09 358.89c1.7187 0.65106 3.0403 1.6146 3.9648 2.8906 0.92446 1.276 1.3867 2.7409 1.3867 4.3945-0.00002 2.487-0.85288 4.5052-2.5586 6.0547-1.6927 1.5365-3.8216 2.3047-6.3867 2.3047-2.6563 0-4.8307-0.76172-6.5234-2.2852-1.6797-1.5234-2.5195-3.5352-2.5195-6.0352 0-1.6536 0.46875-3.1185 1.4062-4.3945 0.95051-1.289 2.3047-2.2656 4.0625-2.9297-1.3542-0.46873-2.4349-1.2435-3.2422-2.3242-0.79427-1.0807-1.1914-2.2656-1.1914-3.5547 0-1.8489 0.71615-3.4896 2.1484-4.9219 1.4453-1.4453 3.3659-2.1679 5.7617-2.168 2.3828 0.00003 4.3359 0.71618 5.8594 2.1484 1.5364 1.4193 2.3047 3.0664 2.3047 4.9414-0.00002 1.263-0.41017 2.4349-1.2305 3.5156-0.8073 1.0808-1.888 1.8685-3.2422 2.3633m-3.6914-1.4453c0.10416 0.00002 0.39712-0.0651 0.87891-0.19531 0.48176-0.14321 0.91144-0.31899 1.2891-0.52734 0.37759-0.22134 0.72915-0.50129 1.0547-0.83985 0.33852-0.35154 0.61196-0.7617 0.82031-1.2305 0.22134-0.48175 0.33202-1.0156 0.33203-1.6016-0.00001-1.237-0.4297-2.2526-1.2891-3.0469-0.84637-0.79425-1.875-1.1914-3.0859-1.1914-1.1589 0.00002-2.155 0.41018-2.9883 1.2305-0.83334 0.80731-1.25 1.8099-1.25 3.0078-0.00001 0.76825 0.15624 1.4388 0.46875 2.0117 0.31249 0.55991 0.6901 1.0156 1.1328 1.3672 0.45572 0.33856 0.95702 0.59246 1.5039 0.76172 0.55988 0.16928 0.93749 0.25392 1.1328 0.2539m0 2.8516c-1.9662 0.55991-3.3398 1.3802-4.1211 2.4609-0.76824 1.0677-1.1524 2.207-1.1524 3.418 0 1.6667 0.53385 2.9948 1.6016 3.9844 1.0807 0.98958 2.3372 1.4844 3.7695 1.4844 1.4713 0 2.7213-0.48828 3.75-1.4648 1.0416-0.98958 1.5625-2.3242 1.5625-4.0039-0.00002-3.0599-1.8034-5.0195-5.4102-5.8789m20.742-14.375c2.8516 0.00003 5.0065 1.237 6.4648 3.7109 1.4583 2.474 2.1875 6.0287 2.1875 10.664-0.00002 4.5703-0.72918 8.086-2.1875 10.547-1.4584 2.4609-3.6133 3.6914-6.4648 3.6914-2.8386 0-4.987-1.237-6.4453-3.7109-1.4583-2.474-2.1875-5.9831-2.1875-10.527-0.00001-4.5963 0.72916-8.138 2.1875-10.625 1.4583-2.5 3.6068-3.75 6.4453-3.75m0 25.723c1.6276 0 2.845-0.8789 3.6523-2.6367 0.8203-1.7708 1.2304-4.6745 1.2305-8.7109-0.00002-4.0755-0.41017-6.9922-1.2305-8.75-0.8073-1.7708-2.0248-2.6562-3.6523-2.6562-1.6016 0.00003-2.806 0.8594-3.6133 2.5781-0.8073 1.7058-1.211 4.6485-1.2109 8.8281-0.00001 4.1276 0.40364 7.0508 1.2109 8.7695 0.80728 1.7188 2.0117 2.5781 3.6133 2.5781"/>
    <path d="m197.36 235.97h-3.2344v-21.779l-4.3945 2.6719v-2.9883l4.5703-2.8125h3.0586v24.908m18.703 0h-3.2344v-21.779l-4.3945 2.6719v-2.9883l4.5703-2.8125h3.0586v24.908m16.682-25.277c2.5664 0.00002 4.5058 1.1133 5.8184 3.3398 1.3125 2.2266 1.9687 5.4258 1.9688 9.5977-0.00001 4.1133-0.65626 7.2774-1.9688 9.4922s-3.252 3.3223-5.8184 3.3223c-2.5547 0-4.4883-1.1133-5.8008-3.3398-1.3125-2.2266-1.9688-5.3848-1.9688-9.4746 0-4.1367 0.65625-7.3242 1.9688-9.5625 1.3125-2.25 3.2461-3.375 5.8008-3.375m0 23.15c1.4648 0 2.5605-0.79101 3.2871-2.373 0.73827-1.5937 1.1074-4.207 1.1074-7.8398-0.00002-3.668-0.36916-6.293-1.1074-7.875-0.72657-1.5937-1.8223-2.3906-3.2871-2.3906-1.4414 0.00003-2.5254 0.77346-3.252 2.3203-0.72657 1.5352-1.0898 4.1836-1.0898 7.9453-0.00001 3.7148 0.36327 6.3457 1.0898 7.8926 0.72656 1.5469 1.8105 2.3203 3.252 2.3203"/>
   </g>
   <path d="m379.99 764.6c3.3524 0.00006 6.2093 1.1807 8.5706 3.5419 2.3612 2.3613 3.5419 5.2182 3.5419 8.5706-0.00003 3.3233-1.1807 6.1656-3.5419 8.5268-2.3613 2.3613-5.2182 3.542-8.5706 3.5419-3.3233 0.00004-6.1656-1.1806-8.5268-3.5419-2.3613-2.3612-3.5419-5.2035-3.5419-8.5268-0.00001-3.3524 1.1806-6.2092 3.5419-8.5706 2.3613-2.3612 5.2035-3.5418 8.5268-3.5419m0 19.546c2.0697 0.00004 3.8188-0.72875 5.2473-2.1864 1.4576-1.4575 2.1864-3.2066 2.1864-5.2473-0.00002-2.0406-0.72881-3.7751-2.1864-5.2036-1.4284-1.4284-3.1775-2.1426-5.2473-2.1426-2.0406 0.00006-3.7751 0.71427-5.2036 2.1426-1.3993 1.4285-2.0989 3.163-2.0989 5.2036-0.00001 2.0407 0.69963 3.7898 2.0989 5.2473 1.4284 1.4576 3.1629 2.1864 5.2036 2.1864m55.665-11.631h-22.651v21.645h21.689v6.8215h-21.689v26.411h-8.0458v-61.699h30.697v6.8215" stroke="#fff" stroke-width="1.5" fill="#dcae00"/>
   <g transform="translate(.27454)">
    <rect ry="12.877" height="25.753" width="166.32" y="714.35" x="230.4" fill="#000051"/>
    <g stroke="#000" transform="matrix(.44590 -.22922 .22922 .44590 92.124 492.33)">
     <circle stroke-linejoin="round" cx="69.209" transform="translate(-.31884)" cy="562.21" r="18.013" stroke-width="2" fill="#b5dfe0"/>
     <path d="m50.288 562.21h37.206" stroke-width="1px" fill="none"/>
    </g>
    <g stroke="#000" transform="matrix(.39401 .31003 -.31003 .39401 522.57 484.35)">
     <circle stroke-linejoin="round" cx="69.209" transform="translate(-.31884)" cy="562.21" r="18.013" stroke-width="2" fill="#b5dfe0"/>
     <path d="m50.288 562.21h37.206" stroke-width="1px" fill="none"/>
    </g>
   </g>
   <rect ry="12.877" height="25.753" width="166.32" y="170.46" x="230.67" fill="#000051"/>
   <g stroke="#000" transform="matrix(.44046 .23950 -.23950 .44046 356.02 -80.789)">
    <circle stroke-linejoin="round" cx="69.209" transform="translate(-.31884)" cy="562.21" r="18.013" stroke-width="2" fill="#b5dfe0"/>
    <path d="m50.288 562.21h37.206" stroke-width="1px" fill="none"/>
   </g>
   <g stroke="#000" transform="matrix(.49697 -.066216 .066216 .49697 303.95 -91.499)">
    <circle stroke-linejoin="round" cx="69.209" transform="translate(-.31884)" cy="562.21" r="18.013" stroke-width="2" fill="#b5dfe0"/>
    <path d="m50.288 562.21h37.206" stroke-width="1px" fill="none"/>
   </g>
  </g>
  <g>
   <g fill="#800000">
    <path d="m69.74 378.03v-8.5999h1.0498v5.6396q0 0.31128-0.0061 0.61035-0.0061 0.29908-0.01831 0.53711-0.01221 0.28077-0.02441 0.52491l4.5776-7.312h1.355v8.5999h-1.0376v-5.7129q0-0.23804 0-0.50659 0.0061-0.27466 0.01831-0.5066 0.0061-0.26855 0.01831-0.53711l-4.5288 7.2632h-1.4038z"/>
    <path d="m80.494 378.15q-1.0193 0-1.6235-0.37842-0.59814-0.38452-0.8728-1.1719l0.97046-0.26855q0.15259 0.47607 0.53711 0.73853 0.38452 0.26245 1.0132 0.26245 0.58594 0 0.92773-0.28687 0.3479-0.28686 0.3479-0.84228 0-0.36011-0.1709-0.59815-0.1648-0.23804-0.44556-0.37231-0.28076-0.14038-0.64697-0.19532-0.36621-0.0549-0.75684-0.0549v-0.83618q0.39062 0 0.73852-0.0427 0.3479-0.0488 0.61035-0.1648 0.26245-0.11596 0.40894-0.31738 0.15259-0.20752 0.15259-0.5249 0-0.45166-0.30518-0.71411-0.29907-0.26246-0.8667-0.26246-0.21362 0-0.42725 0.0427-0.21362 0.0427-0.39673 0.14648-0.18311 0.0977-0.31128 0.26856-0.12817 0.16479-0.1709 0.42114l-0.98877-0.12207q0.07324-0.41504 0.26245-0.71411t0.48218-0.48828q0.29907-0.19531 0.6897-0.28076 0.39062-0.0916 0.8667-0.0916 0.5188 0 0.93994 0.12818 0.42114 0.12817 0.72022 0.3601 0.29907 0.23194 0.45776 0.54932 0.1648 0.31738 0.1648 0.70191 0 0.3479-0.13428 0.61645-0.13428 0.26856-0.354 0.45776-0.21362 0.18311-0.48218 0.29297-0.26856 0.10987-0.54321 0.13428v0.0122q0.3418 0.0366 0.64697 0.16479 0.30518 0.12207 0.53101 0.32959 0.23193 0.20142 0.36011 0.48828 0.13428 0.28076 0.13428 0.63477 0 0.42114-0.15259 0.78735-0.14648 0.36011-0.45776 0.62866-0.30518 0.26246-0.76904 0.41504-0.46387 0.14649-1.0864 0.14649z"/>
    <path d="m88.258 372.23h-1.8677q-0.14648 1.0803-0.29907 1.886-0.14648 0.79956-0.29297 1.3916-0.14648 0.59204-0.29297 1.0071-0.14648 0.41504-0.28076 0.72022h3.0334v-5.0049zm1.9897 8.2947h-0.99487v-2.4902h-4.9683v2.4902h-0.99487v-3.2898h0.72632q0.18311-0.30518 0.36011-0.73853 0.177-0.43945 0.354-1.1108 0.177-0.67138 0.3479-1.6296 0.177-0.96435 0.3479-2.3254h3.9307v5.8044h0.89111v3.2898z"/>
    <path d="m92.994 378.15q-0.99487 0-1.4954-0.5249-0.50049-0.52491-0.50049-1.4404 0-0.65308 0.24414-1.0681 0.25024-0.42114 0.64697-0.65918 0.40283-0.23804 0.91553-0.32959 0.5127-0.0916 1.0437-0.10376l1.4832-0.0244v-0.36011q0-0.40894-0.08545-0.6958-0.08545-0.28687-0.26245-0.46387t-0.44556-0.25635q-0.26245-0.0854-0.62256-0.0854-0.31738 0-0.57373 0.0488-0.25635 0.0427-0.44556 0.1648-0.18921 0.11596-0.30518 0.32348-0.11597 0.20142-0.15259 0.5127l-1.1475-0.10376q0.06104-0.39063 0.23193-0.71411 0.1709-0.32959 0.48218-0.56763 0.31738-0.23804 0.78735-0.36621 0.47607-0.13428 1.1475-0.13428 1.2451 0 1.8738 0.57373 0.62866 0.56763 0.62866 1.648v2.8442q0 0.48828 0.12817 0.73853 0.12817 0.24414 0.48828 0.24414 0.09155 0 0.18311-0.0122 0.09155-0.0122 0.177-0.0305v0.6836q-0.20752 0.0488-0.41504 0.0732-0.20142 0.0244-0.43335 0.0244-0.31128 0-0.53711-0.0793-0.21973-0.0854-0.36011-0.25025-0.14038-0.1709-0.21362-0.41504-0.07324-0.25024-0.09155-0.57983h-0.03662q-0.177 0.31738-0.39062 0.57373-0.20752 0.25635-0.48828 0.43945-0.28076 0.17701-0.64087 0.27466-0.354 0.0977-0.81787 0.0977zm0.25024-0.82398q0.5249 0 0.91553-0.18921 0.39673-0.19531 0.65308-0.49438 0.26245-0.29907 0.39062-0.65308 0.12817-0.354 0.12817-0.67749v-0.54321l-1.2024 0.0244q-0.40283 0.006-0.76904 0.061-0.36011 0.0488-0.63477 0.20142-0.27466 0.15258-0.43945 0.42724-0.15869 0.27466-0.15869 0.72022 0 0.53711 0.28686 0.83007 0.29297 0.29297 0.83008 0.29297z"/>
    <path d="m97.37 371.43h5.2979v0.79956h-2.0996v5.8044h-1.0986v-5.8044h-2.0996v-0.79956z"/>
    <path d="m104.43 374.96q0 0.5188 0.10376 0.95825 0.10986 0.43335 0.32959 0.75073 0.22583 0.31128 0.57373 0.48828 0.3479 0.1709 0.83618 0.1709 0.71411 0 1.1414-0.28686 0.43335-0.28687 0.58593-0.72632l0.96436 0.27466q-0.10376 0.27466-0.29297 0.55542-0.18311 0.27466-0.49438 0.50049-0.31128 0.21972-0.78125 0.36621-0.46387 0.14038-1.123 0.14038-1.4648 0-2.2339-0.8728-0.76294-0.87281-0.76294-2.594 0-0.92773 0.23194-1.5686 0.23193-0.64698 0.63476-1.0498 0.40283-0.40283 0.93994-0.57983 0.53711-0.18311 1.1475-0.18311 0.83008 0 1.3855 0.26856 0.56153 0.26855 0.89722 0.74463 0.3418 0.46997 0.48218 1.1108 0.14648 0.64087 0.14648 1.3855v0.14649h-4.7119zm3.5767-0.84229q-0.0916-1.0437-0.53101-1.5198-0.43945-0.48218-1.2634-0.48218-0.27465 0-0.57983 0.0915-0.29907 0.0854-0.55542 0.31128-0.25635 0.22583-0.43335 0.61646-0.177 0.38452-0.20142 0.98266h3.5645z"/>
    <path d="m114.61 378.03v-5.8044h-2.2888q-0.15259 1.123-0.28076 2.002-0.12817 0.8728-0.26245 1.532-0.13428 0.65918-0.29297 1.1169-0.15259 0.45166-0.37231 0.73853-0.21363 0.28076-0.50049 0.40893-0.28687 0.12818-0.6836 0.12818-0.177 0-0.32348-0.0244-0.14649-0.0244-0.25025-0.0549v-0.78735q0.0671 0.0244 0.18311 0.0427 0.11597 0.0122 0.23193 0.0122 0.21363 0 0.36621-0.12817 0.1587-0.12818 0.28077-0.41504 0.12207-0.28687 0.21972-0.73853 0.10376-0.45776 0.20752-1.1169 0.10376-0.65918 0.21973-1.5259 0.11597-0.8728 0.26855-1.9898h4.3823v6.604h-1.1047z"/>
    <path d="m120.06 374.22q1.2512 0 1.8921 0.45166 0.64087 0.44556 0.64087 1.416 0 0.45166-0.1587 0.81177-0.15869 0.3601-0.47607 0.61035-0.31738 0.25024-0.79346 0.38452-0.46997 0.13428-1.0986 0.13428h-2.6062v-6.604h1.0986v2.7954h1.5015zm-1.5015 3.0334h1.3428q0.42114 0 0.71411-0.0732 0.29297-0.0793 0.46997-0.22583 0.1831-0.15259 0.26245-0.36621 0.0793-0.21973 0.0793-0.50049 0-0.57373-0.354-0.83618-0.354-0.26856-1.1658-0.26856h-1.3489v2.2705z"/>
   </g>
   <g fill="#008080">
    <path d="m386.63 379.3v-7.6172h-4.6509v7.6172h-1.1658v-8.5998h6.9824v8.5998h-1.1658z"/>
    <path d="m395.21 375.99q0 1.7334-0.76294 2.5818-0.76294 0.84839-2.2156 0.84839-0.68969 0-1.2329-0.20752t-0.92163-0.63476q-0.37231-0.42725-0.57373-1.0681-0.19531-0.64697-0.19531-1.5198 0-3.418 2.9602-3.418 0.76905 0 1.3245 0.21362 0.56152 0.21362 0.91552 0.64087 0.36011 0.42724 0.53101 1.0681 0.1709 0.64087 0.1709 1.4954zm-1.1536 0q0-0.76904-0.12207-1.2695-0.11596-0.50048-0.3479-0.79956-0.22583-0.29907-0.55542-0.41504-0.32959-0.12207-0.74462-0.12207-0.42115 0-0.76294 0.12818-0.3357 0.12207-0.57373 0.42724-0.23804 0.29908-0.36622 0.79956-0.12207 0.50049-0.12207 1.2512 0 0.76905 0.13428 1.2756 0.13428 0.50049 0.36621 0.79956 0.23804 0.29907 0.55542 0.42114 0.32349 0.12207 0.70191 0.12207 0.42114 0 0.76294-0.11596 0.34179-0.12207 0.57983-0.42115 0.23804-0.29907 0.36621-0.80566t0.12817-1.2756z"/>
    <path d="m400.56 373.49h-1.8677q-0.14649 1.0803-0.29908 1.886-0.14648 0.79956-0.29296 1.3916-0.14649 0.59205-0.29297 1.0071-0.14649 0.41504-0.28077 0.72022h3.0334v-5.0049zm1.9898 8.2947h-0.99487v-2.4902h-4.9683v2.4902h-0.99487v-3.2898h0.72632q0.1831-0.30518 0.36011-0.73853 0.177-0.43945 0.354-1.1108 0.177-0.67138 0.3479-1.6296 0.177-0.96436 0.3479-2.3254h3.9307v5.8044h0.89111v3.2898z"/>
    <path d="m408.67 372.69v6.604h-1.0986v-5.8044h-2.8381v5.8044h-1.0986v-6.604h5.0354z"/>
    <path d="m411.46 372.69v3.6133q0 0.14038-0.0122 0.37842-0.006 0.23193-0.0183 0.48217-0.006 0.25025-0.0183 0.47608-0.006 0.22583-0.0122 0.354l3.0456-5.304h1.2024v6.604h-1.0498v-4.0283q0-0.11597 0.006-0.28687 0.006-0.177 0.0122-0.3601 0.0122-0.18311 0.0183-0.35401 0.0122-0.177 0.0244-0.29907l-3.0884 5.3284h-1.1719v-6.604h1.062z"/>
    <path d="m418.2 375.96q0 0.56763 0.0793 1.0437 0.0854 0.47608 0.28077 0.82398 0.19531 0.34179 0.51269 0.531 0.32349 0.18921 0.79346 0.18921 0.58594 0 0.97656-0.31738 0.39673-0.31738 0.48828-0.97656l1.1108 0.0732q-0.0549 0.40893-0.23803 0.78735-0.18311 0.37842-0.50049 0.66528-0.31128 0.28687-0.76294 0.46387-0.45166 0.1709-1.0437 0.1709-0.77515 0-1.3184-0.26245-0.54322-0.26245-0.88501-0.72022-0.3357-0.46386-0.48828-1.0864-0.15259-0.62866-0.15259-1.3611 0-0.66528 0.10986-1.1719 0.10986-0.5127 0.30518-0.89111 0.20141-0.38453 0.46997-0.64087 0.26855-0.26245 0.57983-0.41504 0.31738-0.15869 0.66528-0.22583 0.34791-0.0732 0.70191-0.0732 0.55542 0 0.98877 0.15258 0.43335 0.15259 0.74463 0.42115 0.31738 0.26245 0.51269 0.62256 0.19532 0.3601 0.27466 0.77514l-1.1292 0.0855q-0.0855-0.54932-0.43335-0.8728-0.3479-0.32349-0.98877-0.32349-0.46997 0-0.78735 0.15869-0.31128 0.15259-0.50659 0.46997-0.19532 0.31128-0.28077 0.78736-0.0793 0.47607-0.0793 1.1169z"/>
    <path d="m424.46 372.69v2.4536q0 0.20752 0.0488 0.39062 0.0488 0.17701 0.16479 0.31128 0.12207 0.13428 0.31739 0.21363 0.19531 0.0732 0.48217 0.0732 0.42725 0 0.83008-0.0793t0.85449-0.20752v-3.1555h1.0986v6.604h-1.0986v-2.8137q-0.23193 0.0916-0.48217 0.18921-0.24415 0.0916-0.5127 0.16479-0.26245 0.0732-0.54932 0.12207-0.28076 0.0488-0.59204 0.0488-0.40283 0-0.71411-0.12207-0.30517-0.12817-0.5188-0.36011-0.20752-0.23193-0.31738-0.56762-0.10986-0.3357-0.10986-0.75684v-2.5085h1.0986z"/>
    <path d="m431.07 372.69v3.6133q0 0.14038-0.0122 0.37842-0.006 0.23193-0.0183 0.48217-0.006 0.25025-0.0183 0.47608-0.006 0.22583-0.0122 0.354l3.0456-5.304h1.2024v6.604h-1.0498v-4.0283q0-0.11597 0.006-0.28687 0.006-0.177 0.0122-0.3601 0.0122-0.18311 0.0183-0.35401 0.0122-0.177 0.0244-0.29907l-3.0884 5.3284h-1.1719v-6.604h1.062z"/>
    <path d="m436.96 372.69h1.0986v2.8931q0.18311 0 0.32959-0.0488 0.14649-0.0488 0.30518-0.20141 0.15869-0.15259 0.354-0.43335 0.20142-0.28076 0.49439-0.75073l0.90332-1.4587h1.1475l-1.3184 1.9836q-0.27466 0.40283-0.47608 0.66528-0.20141 0.25635-0.30517 0.3418l2.1545 3.6133h-1.2207l-1.6968-3.0334q-0.11597 0.0488-0.31738 0.0854-0.19532 0.0366-0.35401 0.0366v2.9114h-1.0986v-6.604z"/>
   </g>
   <g fill="#e6e6e6">
    <path d="m222.83 206.52v-5.7373q0-0.31128 0.006-0.63476 0.006-0.32349 0.0183-0.59204 0.0122-0.31128 0.0305-0.60425-0.0854 0.31128-0.177 0.61645-0.0793 0.26245-0.177 0.56153-0.0915 0.29296-0.1831 0.531l-2.2217 5.8594h-0.81788l-2.2522-5.8594q-0.0366-0.0916-0.0794-0.21362-0.0366-0.12207-0.0854-0.25635-0.0427-0.14038-0.0916-0.28076-0.0427-0.14649-0.0854-0.28687-0.10376-0.32348-0.20141-0.67138 0.006 0.34179 0.0183 0.67749 0.0122 0.28686 0.0183 0.60425 0.006 0.31127 0.006 0.54931v5.7373h-1.0376v-8.5999h1.532l2.2888 5.9631q0.0427 0.12207 0.10376 0.31738 0.061 0.18921 0.11597 0.39062 0.0549 0.20142 0.0977 0.38453 0.0488 0.177 0.0671 0.27465 0.0183-0.0976 0.0671-0.28076 0.0488-0.1831 0.10987-0.38452 0.0671-0.20141 0.12817-0.39062 0.061-0.18921 0.10986-0.31128l2.2461-5.9631h1.4954v8.5999h-1.0498z"/>
    <path d="m234.05 202.18q0 0.90942-0.23804 1.6663-0.23193 0.75073-0.67749 1.3184-0.43945 0.56762-1.0864 0.92773-0.64087 0.354-1.4587 0.46387 0.12817 0.39062 0.28686 0.66528 0.1648 0.27466 0.37232 0.44556 0.20752 0.177 0.45776 0.25634 0.25635 0.0854 0.56763 0.0854 0.17089 0 0.36621-0.0244 0.19531-0.0244 0.33569-0.0549v0.81787q-0.23193 0.0549-0.51269 0.0916-0.27466 0.0427-0.57374 0.0427-0.5249 0-0.91552-0.1587-0.39063-0.15258-0.6897-0.44555-0.29297-0.28687-0.50659-0.70801t-0.37842-0.95215q-0.96435-0.0488-1.6968-0.39673-0.72631-0.354-1.2146-0.93994-0.48217-0.59204-0.72631-1.3794-0.24414-0.79346-0.24414-1.7212 0-1.0071 0.28076-1.8188 0.28076-0.81177 0.82397-1.3794 0.54321-0.57373 1.3367-0.8789 0.79956-0.31128 1.8311-0.31128 1.0254 0 1.8188 0.31128 0.79956 0.31128 1.3367 0.88501 0.54322 0.57373 0.82398 1.3855 0.28076 0.81176 0.28076 1.8066zm-1.1902 0q0-0.77515-0.20141-1.4099-0.19531-0.63476-0.58594-1.0864-0.38452-0.45166-0.95825-0.6958t-1.3245-0.24414q-0.76905 0-1.3489 0.24414-0.57983 0.24414-0.97046 0.6958-0.38452 0.45166-0.57983 1.0864-0.18921 0.63477-0.18921 1.4099 0 0.77514 0.19531 1.4221 0.20142 0.64086 0.58594 1.1108 0.39062 0.46386 0.96435 0.72631 0.57984 0.25635 1.3306 0.25635 0.80566 0 1.3855-0.26245 0.58593-0.26245 0.95825-0.72632 0.37842-0.46997 0.55542-1.1169 0.1831-0.64697 0.1831-1.4099z"/>
    <path d="m239.03 198.88v7.6477h-1.1597v-7.6477h-2.9541v-0.95215h7.0679v0.95215h-2.9541z"/>
    <path d="m246.67 198.88v7.6477h-1.1597v-7.6477h-2.9541v-0.95215h7.0679v0.95215h-2.9541z"/>
    <path d="m249.79 203.69v-0.97656h3.0518v0.97656h-3.0518z"/>
    <path d="m260.97 204q0 0.53101-0.18921 0.98877-0.1831 0.45777-0.55542 0.79956-0.36621 0.3418-0.92163 0.53711-0.55542 0.19532-1.2939 0.19532h-3.5706v-8.5999h5.6518v0.95215h-4.4861v2.6856h2.3315q0.76294 0 1.3306 0.177 0.56763 0.177 0.94605 0.50049 0.37841 0.31738 0.56762 0.76904 0.18921 0.44556 0.18921 0.99487zm-1.1719 0.0122q0-0.73852-0.50049-1.1292-0.50049-0.39673-1.5015-0.39673h-2.1912v3.1128h2.24q1.001 0 1.477-0.41503 0.47608-0.41504 0.47608-1.1719z"/>
    <path d="m268.04 203.19q0 0.75073-0.12207 1.3855t-0.40894 1.0925q-0.28076 0.45777-0.75073 0.72022-0.46387 0.25635-1.1475 0.25635-0.70801 0-1.239-0.26856-0.531-0.26855-0.81176-0.8789h-0.0305q0.006 0.0122 0.006 0.10986 0.006 0.0976 0.006 0.24414 0.006 0.14648 0.006 0.32959 0.006 0.177 0.006 0.354v2.5818h-1.0986v-7.8491q0-0.23804-0.006-0.45776 0-0.21973-0.006-0.39673-0.006-0.18311-0.0122-0.31128-0.006-0.12818-0.0122-0.18311h1.062q0.006 0.0183 0.0122 0.12818 0.0122 0.10986 0.0183 0.26855 0.0122 0.15259 0.0183 0.32959 0.0122 0.177 0.0122 0.33569h0.0244q0.15259-0.31738 0.3479-0.53711 0.19531-0.22583 0.44556-0.36621 0.25024-0.14648 0.55542-0.20752 0.31128-0.0671 0.6958-0.0671 0.68359 0 1.1475 0.24414 0.46997 0.24414 0.75073 0.68969 0.28687 0.43946 0.40894 1.0681 0.12207 0.62256 0.12207 1.3855zm-1.1536 0.0244q0-0.61035-0.0732-1.0864-0.0732-0.47608-0.25635-0.80567-0.177-0.32959-0.47607-0.50049t-0.75073-0.1709q-0.36622 0-0.6897 0.10376-0.32349 0.10376-0.56763 0.39673-0.23804 0.29297-0.37842 0.81177-0.14038 0.5127-0.14038 1.3367 0 0.7019 0.11597 1.1902 0.11597 0.48217 0.33569 0.78125 0.22583 0.29907 0.55542 0.43334 0.32959 0.12818 0.75684 0.12818 0.45776 0 0.75683-0.177 0.30518-0.17701 0.48218-0.5127 0.18311-0.33569 0.25635-0.81787 0.0732-0.48828 0.0732-1.1108z"/>
    <path d="m275 203.22q0 1.7334-0.76294 2.5818-0.76294 0.84839-2.2156 0.84839-0.6897 0-1.2329-0.20752-0.54321-0.20752-0.92163-0.63477-0.37232-0.42725-0.57373-1.0681-0.19532-0.64698-0.19532-1.5198 0-3.418 2.9602-3.418 0.76904 0 1.3245 0.21363 0.56153 0.21362 0.91553 0.64086 0.36011 0.42725 0.53101 1.0681 0.17089 0.64087 0.17089 1.4954zm-1.1536 0q0-0.76904-0.12207-1.2695-0.11597-0.50049-0.3479-0.79956-0.22583-0.29907-0.55542-0.41504-0.32959-0.12207-0.74463-0.12207-0.42114 0-0.76294 0.12817-0.33569 0.12207-0.57373 0.42725-0.23804 0.29907-0.36621 0.79956-0.12207 0.50049-0.12207 1.2512 0 0.76904 0.13428 1.2756 0.13427 0.50048 0.36621 0.79956 0.23803 0.29907 0.55542 0.42114 0.32348 0.12207 0.7019 0.12207 0.42114 0 0.76294-0.11597 0.3418-0.12207 0.57983-0.42114 0.23804-0.29907 0.36622-0.80566 0.12817-0.5066 0.12817-1.2756z"/>
    <path d="m276.37 199.92h1.0986v2.8931q0.1831 0 0.32959-0.0488 0.14648-0.0488 0.30517-0.20142 0.15869-0.15258 0.35401-0.43334 0.20141-0.28077 0.49438-0.75074l0.90332-1.4587h1.1475l-1.3184 1.9836q-0.27465 0.40284-0.47607 0.66529-0.20142 0.25635-0.30518 0.34179l2.1545 3.6133h-1.2207l-1.6968-3.0334q-0.11596 0.0488-0.31738 0.0855-0.19531 0.0366-0.354 0.0366v2.9114h-1.0986v-6.604z"/>
    <path d="m282.83 203.45q0 0.5188 0.10376 0.95825 0.10987 0.43335 0.32959 0.75073 0.22583 0.31128 0.57373 0.48828 0.34791 0.1709 0.83619 0.1709 0.71411 0 1.1414-0.28686 0.43335-0.28687 0.58594-0.72632l0.96436 0.27466q-0.10376 0.27465-0.29297 0.55542-0.18311 0.27465-0.49439 0.50048-0.31128 0.21973-0.78125 0.36622-0.46386 0.14038-1.123 0.14038-1.4648 0-2.2339-0.87281-0.76294-0.8728-0.76294-2.594 0-0.92773 0.23193-1.5686 0.23194-0.64698 0.63477-1.0498 0.40283-0.40283 0.93994-0.57983 0.53711-0.18311 1.1475-0.18311 0.83008 0 1.3855 0.26856 0.56152 0.26855 0.89722 0.74463 0.34179 0.46997 0.48217 1.1108 0.14649 0.64086 0.14649 1.3855v0.14649h-4.7119zm3.5767-0.84229q-0.0915-1.0437-0.531-1.5198-0.43945-0.48218-1.2634-0.48218-0.27466 0-0.57983 0.0916-0.29908 0.0855-0.55542 0.31128-0.25635 0.22583-0.43335 0.61646-0.177 0.38452-0.20142 0.98266h3.5644z"/>
    <path d="m294.53 203.19q0 0.75073-0.12207 1.3855t-0.40893 1.0925q-0.28076 0.45777-0.75073 0.72022-0.46387 0.25635-1.1475 0.25635-0.708 0-1.239-0.26856-0.531-0.26855-0.81177-0.8789h-0.0305q0.006 0.0122 0.006 0.10986 0.006 0.0976 0.006 0.24414 0.006 0.14648 0.006 0.32959 0.006 0.177 0.006 0.354v2.5818h-1.0986v-7.8491q0-0.23804-0.006-0.45776 0-0.21973-0.006-0.39673-0.006-0.18311-0.0122-0.31128-0.006-0.12818-0.0122-0.18311h1.062q0.006 0.0183 0.0122 0.12818 0.0122 0.10986 0.0183 0.26855 0.0122 0.15259 0.0183 0.32959 0.0122 0.177 0.0122 0.33569h0.0244q0.15259-0.31738 0.3479-0.53711 0.19531-0.22583 0.44555-0.36621 0.25025-0.14648 0.55542-0.20752 0.31128-0.0671 0.6958-0.0671 0.6836 0 1.1475 0.24414 0.46997 0.24414 0.75073 0.68969 0.28686 0.43946 0.40893 1.0681 0.12207 0.62256 0.12207 1.3855zm-1.1536 0.0244q0-0.61035-0.0732-1.0864-0.0732-0.47608-0.25635-0.80567-0.177-0.32959-0.47607-0.50049-0.29908-0.1709-0.75074-0.1709-0.36621 0-0.68969 0.10376-0.32349 0.10376-0.56763 0.39673-0.23804 0.29297-0.37842 0.81177-0.14038 0.5127-0.14038 1.3367 0 0.7019 0.11597 1.1902 0.11596 0.48217 0.33569 0.78125 0.22583 0.29907 0.55542 0.43334 0.32959 0.12818 0.75684 0.12818 0.45776 0 0.75683-0.177 0.30518-0.17701 0.48218-0.5127 0.1831-0.33569 0.25635-0.81787 0.0732-0.48828 0.0732-1.1108z"/>
   </g>
   <g fill="#008080">
    <path d="m466.97 359.69v-7.6172h-4.6509v7.6172h-1.1658v-8.5998h6.9824v8.5998h-1.1658z"/>
    <path d="m475.55 356.38q0 1.7334-0.76294 2.5818-0.76294 0.84839-2.2156 0.84839-0.6897 0-1.2329-0.20752-0.54321-0.20752-0.92163-0.63477-0.37231-0.42725-0.57373-1.0681-0.19531-0.64697-0.19531-1.5198 0-3.418 2.9602-3.418 0.76904 0 1.3245 0.21362 0.56153 0.21363 0.91553 0.64087 0.36011 0.42725 0.53101 1.0681 0.1709 0.64087 0.1709 1.4954zm-1.1536 0q0-0.76904-0.12207-1.2695-0.11597-0.50049-0.3479-0.79956-0.22583-0.29907-0.55542-0.41504-0.32959-0.12207-0.74463-0.12207-0.42114 0-0.76294 0.12817-0.33569 0.12207-0.57373 0.42725-0.23803 0.29907-0.36621 0.79956-0.12207 0.50049-0.12207 1.2512 0 0.76904 0.13428 1.2756 0.13428 0.50049 0.36621 0.79956 0.23804 0.29908 0.55542 0.42115 0.32349 0.12207 0.7019 0.12207 0.42115 0 0.76294-0.11597 0.3418-0.12207 0.57984-0.42114 0.23803-0.29907 0.36621-0.80567 0.12817-0.50659 0.12817-1.2756z"/>
    <path d="m480.9 353.88h-1.8677q-0.14648 1.0803-0.29907 1.886-0.14648 0.79956-0.29297 1.3916-0.14648 0.59204-0.29297 1.0071-0.14648 0.41504-0.28076 0.72021h3.0334v-5.0049zm1.9898 8.2947h-0.99488v-2.4902h-4.9683v2.4902h-0.99487v-3.2898h0.72632q0.1831-0.30517 0.3601-0.73852 0.17701-0.43945 0.35401-1.1108 0.177-0.67139 0.3479-1.6296 0.177-0.96436 0.3479-2.3254h3.9307v5.8044h0.89112v3.2898z"/>
    <path d="m489.01 353.08v6.604h-1.0986v-5.8044h-2.8381v5.8044h-1.0986v-6.604h5.0354z"/>
    <path d="m491.8 353.08v3.6133q0 0.14038-0.0122 0.37842-0.006 0.23193-0.0183 0.48218-0.006 0.25024-0.0183 0.47607-0.006 0.22583-0.0122 0.35401l3.0457-5.304h1.2024v6.604h-1.0498v-4.0283q0-0.11596 0.006-0.28686 0.006-0.177 0.0122-0.36011 0.0122-0.1831 0.0183-0.354 0.0122-0.177 0.0244-0.29907l-3.0884 5.3284h-1.1719v-6.604h1.062z"/>
    <path d="m498.54 356.35q0 0.56762 0.0793 1.0437 0.0854 0.47607 0.28076 0.82397 0.19532 0.3418 0.5127 0.53101 0.32349 0.18921 0.79346 0.18921 0.58593 0 0.97656-0.31739 0.39673-0.31738 0.48828-0.97656l1.1108 0.0732q-0.0549 0.40894-0.23804 0.78736-0.1831 0.37841-0.50049 0.66528-0.31128 0.28686-0.76294 0.46387-0.45166 0.1709-1.0437 0.1709-0.77514 0-1.3184-0.26246-0.54321-0.26245-0.88501-0.72021-0.33569-0.46387-0.48828-1.0864-0.15258-0.62866-0.15258-1.3611 0-0.66528 0.10986-1.1719 0.10986-0.51269 0.30517-0.89111 0.20142-0.38452 0.46998-0.64087 0.26855-0.26245 0.57983-0.41504 0.31738-0.15869 0.66528-0.22583 0.3479-0.0732 0.70191-0.0732 0.55542 0 0.98877 0.15259t0.74462 0.42114q0.31739 0.26245 0.5127 0.62256t0.27466 0.77515l-1.1292 0.0854q-0.0855-0.54932-0.43335-0.87281-0.3479-0.32348-0.98877-0.32348-0.46997 0-0.78735 0.15869-0.31128 0.15259-0.5066 0.46997-0.19531 0.31128-0.28076 0.78735-0.0793 0.47608-0.0793 1.117z"/>
    <path d="m504.8 353.08v2.4536q0 0.20752 0.0488 0.39063 0.0488 0.177 0.1648 0.31128 0.12207 0.13428 0.31738 0.21362 0.19532 0.0732 0.48218 0.0732 0.42725 0 0.83008-0.0793 0.40283-0.0794 0.85449-0.20752v-3.1555h1.0986v6.604h-1.0986v-2.8137q-0.23193 0.0916-0.48218 0.18921-0.24414 0.0916-0.51269 0.1648-0.26245 0.0732-0.54932 0.12207-0.28076 0.0488-0.59204 0.0488-0.40283 0-0.71411-0.12207-0.30518-0.12818-0.5188-0.36011-0.20752-0.23193-0.31738-0.56763-0.10987-0.33569-0.10987-0.75683v-2.5086h1.0986z"/>
    <path d="m511.41 353.08v3.6133q0 0.14038-0.0122 0.37842-0.006 0.23193-0.0183 0.48218-0.006 0.25024-0.0183 0.47607-0.006 0.22583-0.0122 0.35401l3.0456-5.304h1.2024v6.604h-1.0498v-4.0283q0-0.11596 0.006-0.28686 0.006-0.177 0.0122-0.36011 0.0122-0.1831 0.0183-0.354 0.0122-0.177 0.0244-0.29907l-3.0884 5.3284h-1.1719v-6.604h1.062z"/>
    <path d="m517.3 353.08h1.0986v2.8931q0.18311 0 0.32959-0.0488t0.30518-0.20142q0.15869-0.15258 0.354-0.43335 0.20142-0.28076 0.49438-0.75073l0.90332-1.4587h1.1475l-1.3184 1.9836q-0.27466 0.40284-0.47608 0.66529-0.20141 0.25634-0.30517 0.34179l2.1545 3.6133h-1.2207l-1.6968-3.0334q-0.11597 0.0488-0.31739 0.0854-0.19531 0.0366-0.354 0.0366v2.9114h-1.0986v-6.604z"/>
   </g>
   <g fill="#008080">
    <path d="m494.31 264.37v-7.6172h-4.6509v7.6172h-1.1658v-8.5999h6.9824v8.5999h-1.1658z"/>
    <path d="m502.89 261.07q0 1.7334-0.76294 2.5818-0.76294 0.84839-2.2156 0.84839-0.6897 0-1.2329-0.20752-0.54321-0.20752-0.92163-0.63477-0.37231-0.42725-0.57373-1.0681-0.19531-0.64698-0.19531-1.5198 0-3.418 2.9602-3.418 0.76904 0 1.3245 0.21362 0.56153 0.21363 0.91553 0.64087 0.36011 0.42725 0.53101 1.0681 0.1709 0.64087 0.1709 1.4954zm-1.1536 0q0-0.76904-0.12207-1.2695-0.11597-0.50049-0.3479-0.79956-0.22583-0.29907-0.55542-0.41504-0.32959-0.12207-0.74463-0.12207-0.42114 0-0.76294 0.12817-0.33569 0.12207-0.57373 0.42725-0.23803 0.29907-0.36621 0.79956-0.12207 0.50049-0.12207 1.2512 0 0.76904 0.13428 1.2756 0.13428 0.50049 0.36621 0.79957 0.23804 0.29907 0.55542 0.42114 0.32349 0.12207 0.7019 0.12207 0.42115 0 0.76294-0.11597 0.3418-0.12207 0.57984-0.42114 0.23803-0.29907 0.36621-0.80567 0.12817-0.50659 0.12817-1.2756z"/>
    <path d="m508.25 258.57h-1.8677q-0.14648 1.0803-0.29907 1.886-0.14648 0.79956-0.29297 1.3916-0.14648 0.59204-0.29297 1.0071-0.14648 0.41504-0.28076 0.72021h3.0334v-5.0049zm1.9898 8.2947h-0.99488v-2.4902h-4.9683v2.4902h-0.99487v-3.2898h0.72632q0.1831-0.30517 0.3601-0.73852 0.17701-0.43945 0.35401-1.1108 0.177-0.67139 0.3479-1.6296 0.177-0.96435 0.3479-2.3254h3.9307v5.8044h0.89112v3.2898z"/>
    <path d="m516.36 257.77v6.604h-1.0986v-5.8044h-2.8381v5.8044h-1.0986v-6.604h5.0354z"/>
    <path d="m519.15 257.77v3.6133q0 0.14038-0.0122 0.37842-0.006 0.23193-0.0183 0.48218-0.006 0.25024-0.0183 0.47607-0.006 0.22583-0.0122 0.35401l3.0457-5.304h1.2024v6.604h-1.0498v-4.0283q0-0.11597 0.006-0.28687 0.006-0.177 0.0122-0.36011 0.0122-0.1831 0.0183-0.354 0.0122-0.177 0.0244-0.29907l-3.0884 5.3284h-1.1719v-6.604h1.062z"/>
    <path d="m525.88 261.04q0 0.56762 0.0793 1.0437 0.0854 0.47607 0.28076 0.82397 0.19532 0.3418 0.5127 0.53101 0.32349 0.18921 0.79346 0.18921 0.58593 0 0.97656-0.31739 0.39673-0.31738 0.48828-0.97656l1.1108 0.0732q-0.0549 0.40894-0.23804 0.78736-0.1831 0.37841-0.50049 0.66528-0.31128 0.28687-0.76294 0.46387-0.45166 0.1709-1.0437 0.1709-0.77514 0-1.3184-0.26246-0.54321-0.26245-0.88501-0.72021-0.33569-0.46387-0.48828-1.0864-0.15258-0.62866-0.15258-1.3611 0-0.66528 0.10986-1.1719 0.10986-0.51269 0.30517-0.89111 0.20142-0.38452 0.46998-0.64087 0.26855-0.26245 0.57983-0.41504 0.31738-0.15869 0.66528-0.22583 0.3479-0.0732 0.70191-0.0732 0.55542 0 0.98877 0.15259t0.74462 0.42114q0.31739 0.26245 0.5127 0.62256t0.27466 0.77515l-1.1292 0.0854q-0.0854-0.54932-0.43335-0.87281-0.3479-0.32348-0.98877-0.32348-0.46997 0-0.78735 0.15869-0.31128 0.15259-0.5066 0.46997-0.19531 0.31128-0.28076 0.78735-0.0793 0.47608-0.0793 1.117z"/>
    <path d="m532.15 257.77v2.4536q0 0.20752 0.0488 0.39063 0.0488 0.177 0.1648 0.31128 0.12207 0.13428 0.31738 0.21362 0.19532 0.0732 0.48218 0.0732 0.42725 0 0.83008-0.0793t0.85449-0.20752v-3.1555h1.0986v6.604h-1.0986v-2.8137q-0.23193 0.0916-0.48218 0.18921-0.24414 0.0916-0.51269 0.1648-0.26245 0.0732-0.54932 0.12207-0.28076 0.0488-0.59204 0.0488-0.40283 0-0.71411-0.12207-0.30518-0.12818-0.5188-0.36011-0.20752-0.23193-0.31738-0.56763-0.10987-0.33569-0.10987-0.75683v-2.5086h1.0986z"/>
    <path d="m538.75 257.77v3.6133q0 0.14038-0.0122 0.37842-0.006 0.23193-0.0183 0.48218-0.006 0.25024-0.0183 0.47607-0.006 0.22583-0.0122 0.35401l3.0456-5.304h1.2024v6.604h-1.0498v-4.0283q0-0.11597 0.006-0.28687 0.006-0.177 0.0122-0.36011 0.0122-0.1831 0.0183-0.354 0.0122-0.177 0.0244-0.29907l-3.0884 5.3284h-1.1719v-6.604h1.062z"/>
    <path d="m544.65 257.77h1.0986v2.8931q0.18311 0 0.32959-0.0488t0.30518-0.20142q0.15869-0.15258 0.354-0.43335 0.20142-0.28076 0.49438-0.75073l0.90332-1.4587h1.1475l-1.3184 1.9836q-0.27466 0.40284-0.47608 0.66529-0.20141 0.25634-0.30517 0.34179l2.1545 3.6133h-1.2207l-1.6968-3.0334q-0.11597 0.0488-0.31739 0.0855-0.19531 0.0366-0.354 0.0366v2.9114h-1.0986v-6.604z"/>
   </g>
  </g>
 </g>
</svg>
