<?xml version="1.0" encoding="UTF-8" standalone="no"?>
<svg xmlns:rdf="http://www.w3.org/1999/02/22-rdf-syntax-ns#" xmlns="http://www.w3.org/2000/svg" height="17.264mm" width="225.11mm" version="1.1" xmlns:cc="http://creativecommons.org/ns#" xmlns:dc="http://purl.org/dc/elements/1.1/" viewBox="0 0 797.6377 61.172814">

<!-- https://developer.mozilla.org/ru/docs/Web/SVG/Element/style -->
<style>
    /* <![CDATA[ */
    .style-2025290f9b2b474c8cf200c91f2af69a {
        animation: anime-2025290f9b2b474c8cf200c91f2af69a 2s infinite;
    }
    @keyframes anime-2025290f9b2b474c8cf200c91f2af69a {
        0%   {fill:red;}
        33%  {fill:green;}
        66%  {fill:blue;}
        100% {fill:red;}
    }
    /* ]]> */
  </style>

 <g transform="translate(25.688 -300.67)">
  <g fill="#800000" class="style-2025290f9b2b474c8cf200c91f2af69a">
   <path d="m161.25 304.96v11.314h-1.5308v-10.026h-5.5624v10.026h-1.5308v-11.314h8.6241z"/>
   <path d="m167.52 308.76q-1.1216 0-1.7733 0.87909-0.65175 0.8715-0.65175 2.3947t0.64416 2.4023q0.65174 0.8715 1.7809 0.8715 1.114 0 1.7657-0.87908 0.65174-0.87908 0.65174-2.3947 0-1.5081-0.65174-2.3872-0.65173-0.88667-1.7657-0.88667zm0-1.1822q1.8188 0 2.857 1.1822t1.0382 3.2738q0 2.084-1.0382 3.2738-1.0382 1.1822-2.857 1.1822-1.8264 0-2.8646-1.1822-1.0307-1.1898-1.0307-3.2738 0-2.0916 1.0307-3.2738 1.0382-1.1822 2.8646-1.1822z"/>
   <path d="m178.56 307.78h1.3868v3.9862l3.7058-3.9862h1.6217l-3.0465 3.2662 3.486 5.2214h-1.4929l-2.857-4.2893-1.4172 1.5232v2.7661h-1.3868v-2.7661l-1.4171-1.5232-2.857 4.2893h-1.4929l3.486-5.2214-3.0465-3.2662h1.6218l3.7058 3.9862v-3.9862z"/>
   <path d="m191.56 312q-1.69 0-2.3417 0.38649-0.65173 0.38649-0.65173 1.3186 0 0.74268 0.48501 1.1822 0.49259 0.43196 1.3338 0.43196 1.1595 0 1.8567-0.81845 0.70478-0.82604 0.70478-2.1901v-0.31071h-1.3868zm2.7812-0.57596v4.8425h-1.3944v-1.2883q-0.47743 0.77298-1.1898 1.1443-0.71237 0.36377-1.743 0.36377-1.3035 0-2.0764-0.72752-0.7654-0.7351-0.7654-1.9628 0-1.4323 0.95486-2.1598 0.96244-0.72751 2.8646-0.72751h1.9552v-0.13641q0-0.96245-0.63658-1.4854-0.629-0.53048-1.7733-0.53048-0.7275 0-1.4171 0.1743-0.68962 0.17432-1.3262 0.52291v-1.2883q0.76539-0.29556 1.4853-0.43954 0.71994-0.15157 1.402-0.15157 1.8415 0 2.7509 0.95486 0.90939 0.95486 0.90939 2.8949z"/>
   <path d="m196.33 316.27v-1.1595q1.3792-0.21219 1.8036-1.167 0.51534-1.3414 0.51534-4.7743v-1.3868h5.7368v8.4877h-1.3944v-7.3737h-2.9479v0.84119q0 3.2738-0.6669 4.744-0.71236 1.5687-3.0465 1.7885z"/>
   <path d="m210.66 317.06q-0.59111 1.5156-1.1519 1.9779-0.56079 0.46228-1.5005 0.46228h-1.114v-1.167h0.81846q0.57595 0 0.89424-0.27281 0.3183-0.27282 0.70478-1.2883l0.25009-0.63657-3.433-8.3513h1.4778l2.6524 6.6386 2.6524-6.6386h1.4778l-3.7285 9.2758z"/>
   <path d="m223.53 307.78v8.4877h-1.3868v-6.8129l-4.0923 6.8129h-1.7885v-8.4877h1.3868v6.7977l4.0847-6.7977h1.796zm-6.002-3.3041h0.89423q0.0833 0.56837 0.44711 0.85634 0.37134 0.28041 1.0307 0.28041 0.65173 0 1.0155-0.28041 0.36376-0.28039 0.46227-0.85634h0.89424q-0.0757 1.0837-0.67446 1.6293-0.59868 0.54562-1.6975 0.54562t-1.6975-0.54562q-0.59868-0.54566-0.67446-1.6293z"/>
   <path d="m232.52 308.11v1.3035q-0.59112-0.32587-1.1898-0.48501-0.59111-0.16673-1.1974-0.16673-1.3565 0-2.1068 0.86393-0.75026 0.85635-0.75026 2.4099t0.75026 2.4175q0.75025 0.85634 2.1068 0.85634 0.60626 0 1.1974-0.15914 0.59868-0.16671 1.1898-0.49258v1.2883q-0.58354 0.27281-1.2125 0.40922-0.62142 0.13641-1.3262 0.13641-1.9173 0-3.0465-1.205t-1.1292-3.2511q0-2.0764 1.1367-3.2662 1.1443-1.1898 3.1298-1.1898 0.64417 0 1.258 0.13641 0.61384 0.12883 1.1898 0.39406z"/>
   <path d="m233.95 307.78h8.1315v1.114h-3.3799v7.3737h-1.3717v-7.3737h-3.3799v-1.114z"/>
   <path d="m247.85 312q-1.69 0-2.3417 0.38649-0.65173 0.38649-0.65173 1.3186 0 0.74268 0.48502 1.1822 0.49258 0.43196 1.3338 0.43196 1.1595 0 1.8567-0.81845 0.70478-0.82604 0.70478-2.1901v-0.31071h-1.3868zm2.7812-0.57596v4.8425h-1.3944v-1.2883q-0.47743 0.77298-1.1898 1.1443-0.71236 0.36377-1.743 0.36377-1.3035 0-2.0765-0.72752-0.7654-0.7351-0.7654-1.9628 0-1.4323 0.95487-2.1598 0.96244-0.72751 2.8646-0.72751h1.9552v-0.13641q0-0.96245-0.63658-1.4854-0.629-0.53048-1.7733-0.53048-0.72752 0-1.4171 0.1743-0.68962 0.17432-1.3262 0.52291v-1.2883q0.7654-0.29556 1.4853-0.43954 0.71993-0.15157 1.402-0.15157 1.8415 0 2.7509 0.95486 0.90941 0.95486 0.90941 2.8949z"/>
   <path d="m253.86 314.35h1.599v1.3035l-1.2428 2.4251h-0.97759l0.62141-2.4251v-1.3035z"/>
   <path d="m265.28 315.16h4.0468v-6.2596h-2.9328v1.061q0 3.1223-0.89424 4.7895l-0.21977 0.40921zm-2.0234 0q0.68963-0.30312 0.99276-0.94728 0.74267-1.599 0.74267-4.8198v-1.6066h5.7368v7.3737h1.114v3.2587h-1.114v-2.1446h-6.8811v2.1446h-1.114v-3.2587h0.52289z"/>
   <path d="m277.41 308.76q-1.1216 0-1.7733 0.87909-0.65173 0.8715-0.65173 2.3947t0.64416 2.4023q0.65173 0.8715 1.7809 0.8715 1.114 0 1.7657-0.87908 0.65173-0.87908 0.65173-2.3947 0-1.5081-0.65173-2.3872-0.65173-0.88667-1.7657-0.88667zm0-1.1822q1.8188 0 2.857 1.1822t1.0382 3.2738q0 2.084-1.0382 3.2738-1.0382 1.1822-2.857 1.1822-1.8264 0-2.8646-1.1822-1.0306-1.1898-1.0306-3.2738 0-2.0916 1.0306-3.2738 1.0382-1.1822 2.8646-1.1822z"/>
   <path d="m286.97 307.58q1.8188 0 2.857 1.1822t1.0382 3.2738q0 2.084-1.0382 3.2738-1.0382 1.1822-2.857 1.1822-1.8264 0-2.8343-1.1519t-1.061-3.3041l-0.0454-1.7354q-0.0378-0.9018-0.0378-1.2125 0-1.2125 0.43954-2.1068 0.68962-1.402 1.8794-2.0082 1.1974-0.60626 3.198-0.62141 0.92455-0.008 1.3338-0.13642l0.38648 1.1064q-0.37133 0.15155-0.71235 0.15913l-1.8946 0.12883q-0.95487 0.0683-1.5308 0.40165-1.5081 0.88667-1.6521 2.0461l-0.0531 0.42439q0.98518-0.90182 2.5842-0.90182zm0 1.1822q-1.1216 0-1.7733 0.87909-0.65172 0.8715-0.65172 2.3947t0.64415 2.4023q0.65173 0.8715 1.7809 0.8715 1.114 0 1.7657-0.87908 0.65174-0.87908 0.65174-2.3947 0-1.5081-0.65174-2.3872-0.65172-0.88667-1.7657-0.88667z"/>
   <path d="m297.05 312q-1.69 0-2.3417 0.38649-0.65174 0.38649-0.65174 1.3186 0 0.74268 0.48501 1.1822 0.49258 0.43196 1.3338 0.43196 1.1595 0 1.8567-0.81845 0.70478-0.82604 0.70478-2.1901v-0.31071h-1.3868zm2.7812-0.57596v4.8425h-1.3944v-1.2883q-0.47742 0.77298-1.1898 1.1443-0.71238 0.36377-1.743 0.36377-1.3035 0-2.0764-0.72752-0.7654-0.7351-0.7654-1.9628 0-1.4323 0.95486-2.1598 0.96244-0.72751 2.8646-0.72751h1.9552v-0.13641q0-0.96245-0.63658-1.4854-0.629-0.53048-1.7733-0.53048-0.72751 0-1.4171 0.1743-0.68964 0.17432-1.3262 0.52291v-1.2883q0.76539-0.29556 1.4854-0.43954 0.71993-0.15157 1.402-0.15157 1.8415 0 2.7509 0.95486 0.90939 0.95486 0.90939 2.8949z"/>
   <path d="m304.05 312.36v2.7964h1.9855q0.95486 0 1.455-0.35617 0.50016-0.36376 0.50016-1.0458t-0.50016-1.0382q-0.50017-0.35616-1.455-0.35616h-1.9855zm0-3.4633v2.3493h1.8339q0.78815 0 1.2883-0.3107 0.50016-0.31829 0.50016-0.87908 0-0.5608-0.50016-0.85634-0.50016-0.30314-1.2883-0.30314h-1.8339zm-1.3944-1.114h3.3193q1.4929 0 2.2962 0.54564 0.80332 0.54563 0.80332 1.5536 0 0.78056-0.40924 1.2428-0.40922 0.4547-1.2125 0.56837 0.96244 0.18188 1.4929 0.75784 0.53046 0.57595 0.53046 1.4399 0 1.1367-0.87908 1.7582-0.87151 0.62142-2.4933 0.62142h-3.4481v-8.4877z"/>
   <path d="m317.14 313.76q0-0.68204-0.50015-1.0382-0.49259-0.35616-1.4475-0.35616h-1.9855v2.7964h1.9855q0.95487 0 1.4475-0.35617 0.50015-0.36376 0.50015-1.0458zm-5.3351-5.9717h1.402v3.4633h2.0461q1.6218 0 2.4933 0.62143 0.87908 0.61384 0.87908 1.887t-0.87908 1.8946q-0.87149 0.62142-2.4933 0.62142h-3.4481v-8.4877z"/>
   <path d="m320.01 307.78h8.1315v1.114h-3.3799v7.3737h-1.3717v-7.3737h-3.3799v-1.114z"/>
   <path d="m337.31 311.68v0.68205h-6.4112q0.0909 1.4399 0.86392 2.1977 0.78057 0.75024 2.1674 0.75024 0.8033 0 1.5536-0.19704 0.75782-0.19703 1.5005-0.5911v1.3186q-0.75025 0.31828-1.5384 0.48501-0.78815 0.16672-1.599 0.16672-2.031 0-3.2208-1.1822-1.1822-1.1822-1.1822-3.198 0-2.084 1.1216-3.3041 1.1292-1.2277 3.0389-1.2277 1.7127 0 2.7054 1.1064 1.0003 1.0988 1.0003 2.9934zm-1.3944-0.40923q-0.0152-1.1443-0.64415-1.8264-0.62142-0.68205-1.6521-0.68205-1.1671 0-1.8718 0.65931-0.6972 0.65933-0.8033 1.8567l4.9714-0.008z"/>
   <path d="m345.89 315v4.5015h-1.402v-11.716h1.402v1.2883q0.43954-0.75783 1.1064-1.1216 0.67447-0.37132 1.6066-0.37132 1.546 0 2.5084 1.2277 0.97 1.2277 0.97 3.2284t-0.97 3.2283q-0.96244 1.2277-2.5084 1.2277-0.93212 0-1.6066-0.36377-0.6669-0.37132-1.1064-1.1292zm4.744-2.9631q0-1.5384-0.63657-2.4099-0.62899-0.87908-1.7354-0.87908t-1.743 0.87908q-0.629 0.87151-0.629 2.4099t0.629 2.4175q0.63658 0.8715 1.743 0.8715t1.7354-0.8715q0.63657-0.87908 0.63657-2.4175z"/>
   <path d="m359.31 309.09q-0.23493-0.13641-0.51533-0.19703-0.27283-0.0683-0.60626-0.0683-1.1822 0-1.8188 0.77299-0.62899 0.7654-0.62899 2.2053v4.4712h-1.402v-8.4877h1.402v1.3186q0.43953-0.77299 1.1443-1.1443 0.70479-0.37891 1.7127-0.37891 0.144 0 0.3183 0.0226 0.1743 0.0152 0.38648 0.053l0.008 1.4323z"/>
   <path d="m363.74 308.76q-1.1216 0-1.7733 0.87909-0.65173 0.8715-0.65173 2.3947t0.64415 2.4023q0.65174 0.8715 1.7809 0.8715 1.114 0 1.7657-0.87908 0.65174-0.87908 0.65174-2.3947 0-1.5081-0.65174-2.3872-0.65172-0.88667-1.7657-0.88667zm0-1.1822q1.8188 0 2.857 1.1822t1.0382 3.2738q0 2.084-1.0382 3.2738-1.0382 1.1822-2.857 1.1822-1.8264 0-2.8646-1.1822-1.0306-1.1898-1.0306-3.2738 0-2.0916 1.0306-3.2738 1.0382-1.1822 2.8646-1.1822z"/>
   <path d="m369.94 307.78h1.3944v8.4877h-1.3944v-8.4877zm0-3.3041h1.3944v1.7657h-1.3944v-1.7657z"/>
   <path d="m377.53 308.76q-1.1216 0-1.7733 0.87909-0.65172 0.8715-0.65172 2.3947t0.64415 2.4023q0.65174 0.8715 1.7809 0.8715 1.114 0 1.7657-0.87908 0.65173-0.87908 0.65173-2.3947 0-1.5081-0.65173-2.3872-0.65172-0.88667-1.7657-0.88667zm0-1.1822q1.8188 0 2.857 1.1822t1.0382 3.2738q0 2.084-1.0382 3.2738-1.0382 1.1822-2.857 1.1822-1.8264 0-2.8646-1.1822-1.0306-1.1898-1.0306-3.2738 0-2.0916 1.0306-3.2738 1.0382-1.1822 2.8646-1.1822z"/>
   <path d="m385.11 305.37v2.4099h2.8722v1.0837h-2.8722v4.6076q0 1.0382 0.2804 1.3338 0.28797 0.29554 1.1595 0.29554h1.4323v1.1671h-1.4323q-1.6142 0-2.228-0.59868-0.61384-0.60627-0.61384-2.1977v-4.6076h-1.0231v-1.0837h1.0231v-2.4099h1.402z"/>
   <path d="m390.02 314.35h1.599v1.9249h-1.599v-1.9249z"/>
   <path d="m399.69 309.09q-0.23492-0.13641-0.51532-0.19703-0.27282-0.0683-0.60626-0.0683-1.1822 0-1.8188 0.77299-0.629 0.7654-0.629 2.2053v4.4712h-1.402v-8.4877h1.402v1.3186q0.43955-0.77299 1.1443-1.1443 0.70479-0.37891 1.7127-0.37891 0.14398 0 0.31828 0.0226 0.1743 0.0152 0.38649 0.053l0.008 1.4323z"/>
   <path d="m401.02 312.92v-5.1381h1.3944v5.085q0 1.205 0.46985 1.8112 0.46986 0.59868 1.4096 0.59868 1.1292 0 1.7809-0.71993 0.65931-0.71994 0.65931-1.9628v-4.8122h1.3944v8.4877h-1.3944v-1.3035q-0.50774 0.77298-1.1822 1.1519-0.66688 0.37134-1.5536 0.37134-1.4626 0-2.2204-0.90939-0.75783-0.9094-0.75783-2.66zm3.5087-5.3427z"/>
   <path d="m417.3 312.36v2.7964h1.9855q0.95487 0 1.455-0.35617 0.50017-0.36376 0.50017-1.0458t-0.50017-1.0382-1.455-0.35616h-1.9855zm0-3.4633v2.3493h1.834q0.78814 0 1.2883-0.3107 0.50016-0.31829 0.50016-0.87908 0-0.5608-0.50016-0.85634-0.50016-0.30314-1.2883-0.30314h-1.834zm-1.3944-1.114h3.3193q1.4929 0 2.2962 0.54564 0.8033 0.54563 0.8033 1.5536 0 0.78056-0.40922 1.2428-0.40924 0.4547-1.2125 0.56837 0.96244 0.18188 1.4929 0.75784 0.53047 0.57595 0.53047 1.4399 0 1.1367-0.87908 1.7582-0.87149 0.62142-2.4932 0.62142h-3.4481v-8.4877z"/>
   <path d="m437.27 307.78v8.4877h-1.3868v-6.8129l-4.0923 6.8129h-1.7885v-8.4877h1.3868v6.7977l4.0847-6.7977h1.7961z"/>
   <path d="m446.25 308.11v1.3035q-0.5911-0.32587-1.1898-0.48501-0.5911-0.16673-1.1974-0.16673-1.3565 0-2.1068 0.86393-0.75025 0.85635-0.75025 2.4099t0.75025 2.4175q0.75024 0.85634 2.1068 0.85634 0.60626 0 1.1974-0.15914 0.59869-0.16671 1.1898-0.49258v1.2883q-0.58352 0.27281-1.2125 0.40922-0.62143 0.13641-1.3262 0.13641-1.9173 0-3.0465-1.205t-1.1292-3.2511q0-2.0764 1.1368-3.2662 1.1443-1.1898 3.1298-1.1898 0.64415 0 1.258 0.13641 0.61384 0.12883 1.1898 0.39406z"/>
   <path d="m448.64 307.78h1.3868v3.9862l3.9331-3.9862h1.7127l-3.2435 3.2814 3.6603 5.2063h-1.5611l-3.0086-4.2817-1.4929 1.5156v2.7661h-1.3868v-8.4877z"/>
   <path d="m457.17 316.27v-1.1595q1.3792-0.21219 1.8036-1.167 0.51532-1.3414 0.51532-4.7743v-1.3868h5.7368v8.4877h-1.3944v-7.3737h-2.948v0.84119q0 3.2738-0.66688 4.744-0.71237 1.5687-3.0465 1.7885z"/>
   <path d="m474.83 308.76q-1.1216 0-1.7733 0.87909-0.65173 0.8715-0.65173 2.3947t0.64415 2.4023q0.65173 0.8715 1.7809 0.8715 1.114 0 1.7657-0.87908 0.65174-0.87908 0.65174-2.3947 0-1.5081-0.65174-2.3872-0.65172-0.88667-1.7657-0.88667zm-3.8498 2.4099q0.144-1.4399 1.0837-2.516 0.94727-1.0761 2.7661-1.0761t2.857 1.1822 1.0382 3.2738q0 2.084-1.0382 3.2738-1.0382 1.1822-2.857 1.1822-1.8264 0-2.8267-1.1443-0.99277-1.1443-1.061-3.0237h-1.5763v3.9483h-1.3944v-8.4877h1.3944v3.3875h1.6142z"/>
   <path d="m485.94 316.27v-3.5694h-2.5994q-1.1595 0-1.9324-0.71994-0.69722-0.65172-0.69722-2.0461v-2.1522h1.3944v2.0234q0 0.88667 0.39408 1.3338 0.40164 0.44712 1.1898 0.44712h2.2508v-3.8043h1.3944v8.4877h-1.3944z"/>
   <path d="m497.48 311.68v0.68205h-6.4112q0.0909 1.4399 0.86393 2.1977 0.78057 0.75024 2.1674 0.75024 0.80329 0 1.5536-0.19704 0.75783-0.19703 1.5005-0.5911v1.3186q-0.75024 0.31828-1.5384 0.48501-0.78814 0.16672-1.599 0.16672-2.031 0-3.2208-1.1822-1.1822-1.1822-1.1822-3.198 0-2.084 1.1216-3.3041 1.1292-1.2277 3.0389-1.2277 1.7127 0 2.7054 1.1064 1.0003 1.0988 1.0003 2.9934zm-1.3944-0.40923q-0.0152-1.1443-0.64416-1.8264-0.62142-0.68205-1.6521-0.68205-1.1671 0-1.8718 0.65931-0.6972 0.65933-0.8033 1.8567l4.9714-0.008z"/>
   <path d="m499.72 307.78h1.402v3.4633h4.5242v-3.4633h1.402v8.4877h-1.402v-3.9104h-4.5242v3.9104h-1.402v-8.4877z"/>
   <path d="m517.14 307.78v8.4877h-1.3868v-6.8129l-4.0923 6.8129h-1.7885v-8.4877h1.3868v6.7977l4.0847-6.7977h1.796z"/>
   <path d="m521.42 310.23q0 0.629 0.48501 0.98516 0.48501 0.3562 1.3868 0.3562h1.8794v-2.6751h-1.8794q-0.90182 0-1.3868 0.3486-0.48501 0.34859-0.48501 0.98518zm-1.9855 6.0399 2.5918-3.7209q-0.87908-0.19704-1.4626-0.71236-0.58354-0.5229-0.58354-1.6066 0-1.2277 0.81088-1.834 0.81845-0.61384 2.463-0.61384h3.3193v8.4877h-1.402v-3.5845h-1.7354l-2.5008 3.5845h-1.5005z"/>
   <path d="m538.14 306.46-2.0765 5.6307h4.1605l-2.084-5.6307zm-0.86393-1.5081h1.7354l4.312 11.314h-1.5914l-1.0307-2.9025h-5.1002l-1.0306 2.9025h-1.6142l4.3196-11.314z"/>
   <path d="m550.22 309.07v-4.5924h1.3944v11.792h-1.3944v-1.2732q-0.43954 0.75784-1.114 1.1292-0.66689 0.36377-1.6066 0.36377-1.5384 0-2.5084-1.2277-0.96244-1.2277-0.96244-3.2283 0-2.0007 0.96244-3.2284 0.97002-1.2277 2.5084-1.2277 0.9397 0 1.6066 0.37132 0.67447 0.36377 1.114 1.1216zm-4.7516 2.9631q0 1.5384 0.62902 2.4175 0.63657 0.8715 1.743 0.8715t1.743-0.8715q0.63658-0.87908 0.63658-2.4175t-0.63658-2.4099q-0.63657-0.87908-1.743-0.87908t-1.743 0.87908q-0.62902 0.87151-0.62902 2.4099z"/>
   <path d="m556.08 310.87v4.1453h2.4554q1.2353 0 1.8264-0.50774 0.59868-0.51531 0.59868-1.5687 0-1.061-0.59868-1.5611-0.5911-0.50774-1.8264-0.50774h-2.4554zm0-4.6531v3.4102h2.2659q1.1216 0 1.6672-0.4168 0.55322-0.4244 0.55322-1.2883 0-0.85634-0.55322-1.2807-0.54563-0.42438-1.6672-0.42438h-2.2659zm-1.5308-1.258h3.9104q1.7506 0 2.6979 0.72751 0.94729 0.72751 0.94729 2.0689 0 1.0382-0.48502 1.6521-0.48501 0.61385-1.4247 0.76541 1.1292 0.2425 1.7506 1.0155 0.629 0.76538 0.629 1.9173 0 1.5157-1.0306 2.3417-1.0306 0.82604-2.9328 0.82604h-4.062v-11.314z"/>
   <path d="m565.13 304.48h1.3944v11.792h-1.3944v-11.792z"/>
   <path d="m572.72 308.76q-1.1216 0-1.7733 0.87909-0.65172 0.8715-0.65172 2.3947t0.64414 2.4023q0.65173 0.8715 1.7809 0.8715 1.114 0 1.7657-0.87908 0.65173-0.87908 0.65173-2.3947 0-1.5081-0.65173-2.3872-0.65173-0.88667-1.7657-0.88667zm0-1.1822q1.8188 0 2.857 1.1822t1.0382 3.2738q0 2.084-1.0382 3.2738-1.0382 1.1822-2.857 1.1822-1.8264 0-2.8646-1.1822-1.0306-1.1898-1.0306-3.2738 0-2.0916 1.0306-3.2738 1.0382-1.1822 2.8646-1.1822z"/>
   <path d="m585.03 308.11v1.3035q-0.5911-0.32587-1.1898-0.48501-0.59111-0.16673-1.1974-0.16673-1.3565 0-2.1068 0.86393-0.75025 0.85635-0.75025 2.4099t0.75025 2.4175q0.75024 0.85634 2.1068 0.85634 0.60626 0 1.1974-0.15914 0.59868-0.16671 1.1898-0.49258v1.2883q-0.58353 0.27281-1.2125 0.40922-0.62143 0.13641-1.3262 0.13641-1.9173 0-3.0465-1.205t-1.1292-3.2511q0-2.0764 1.1368-3.2662 1.1443-1.1898 3.1298-1.1898 0.64415 0 1.258 0.13641 0.61383 0.12883 1.1898 0.39406z"/>
   <path d="m587.41 304.48h1.402v6.9644l4.1605-3.6603h1.7809l-4.5015 3.971 4.691 4.5167h-1.8188l-4.312-4.1453v4.1453h-1.402v-11.792z"/>
   <path d="m124.66 325.62v4.2514h1.9249q1.0686 0 1.6521-0.55322 0.58353-0.55321 0.58353-1.5763 0-1.0155-0.58353-1.5687-0.58352-0.55322-1.6521-0.55322h-1.9249zm-1.5308-1.258h3.4557q1.9022 0 2.8722 0.86393 0.97759 0.85633 0.97759 2.516 0 1.6748-0.97759 2.5312-0.97002 0.85634-2.8722 0.85634h-1.9249v4.547h-1.5308v-11.314z"/>
   <path d="m139.7 331.08v0.68204h-6.4112q0.0909 1.4399 0.86392 2.1977 0.78057 0.75025 2.1674 0.75025 0.80331 0 1.5536-0.19704 0.75782-0.19703 1.5005-0.5911v1.3186q-0.75025 0.31828-1.5384 0.485-0.78814 0.16672-1.599 0.16672-2.031 0-3.2208-1.1822-1.1822-1.1822-1.1822-3.198 0-2.084 1.1216-3.3041 1.1292-1.2277 3.0389-1.2277 1.7127 0 2.7054 1.1064 1.0003 1.0989 1.0003 2.9934zm-1.3944-0.40923q-0.0152-1.1443-0.64415-1.8264-0.62141-0.68204-1.6521-0.68204-1.1671 0-1.8719 0.65931-0.69719 0.65931-0.80329 1.8567l4.9714-0.008z"/>
   <path d="m141.93 327.18h1.3868v3.9862l3.9331-3.9862h1.7127l-3.2435 3.2814 3.6603 5.2063h-1.5611l-3.0086-4.2817-1.4929 1.5156v2.7661h-1.3868v-8.4877z"/>
   <path d="m150.47 335.67v-1.1595q1.3792-0.21218 1.8036-1.167 0.51533-1.3414 0.51533-4.7743v-1.3868h5.7368v8.4877h-1.3944v-7.3737h-2.948v0.84118q0 3.2738-0.66689 4.744-0.71237 1.5687-3.0465 1.7885z"/>
   <path d="m165.12 331.41q-1.69 0-2.3417 0.38649-0.65174 0.38649-0.65174 1.3186 0 0.74267 0.48501 1.1822 0.4926 0.43197 1.3338 0.43197 1.1595 0 1.8567-0.81845 0.70479-0.82604 0.70479-2.1901v-0.31071h-1.3868zm2.7812-0.57595v4.8425h-1.3944v-1.2883q-0.47743 0.77298-1.1898 1.1443-0.71237 0.36376-1.743 0.36376-1.3034 0-2.0764-0.72752-0.76541-0.73509-0.76541-1.9628 0-1.4323 0.95485-2.1598 0.96244-0.7275 2.8646-0.7275h1.9552v-0.13641q0-0.96245-0.63659-1.4854-0.62898-0.53047-1.7733-0.53047-0.72752 0-1.4172 0.1743-0.68962 0.1743-1.3262 0.52289v-1.2883q0.76541-0.29556 1.4853-0.43953 0.71993-0.15157 1.402-0.15157 1.8415 0 2.7509 0.95486 0.90939 0.95487 0.90939 2.8949z"/>
   <path d="m170.73 327.18h2.0386l2.4099 5.6837 2.4175-5.6837h2.0234v8.4877h-1.402v-7.1539l-2.3417 5.5246h-1.3944l-2.3493-5.5246v7.1539h-1.402v-8.4877z"/>
   <path d="m186.34 331.41q-1.69 0-2.3417 0.38649-0.65173 0.38649-0.65173 1.3186 0 0.74267 0.48502 1.1822 0.49258 0.43197 1.3338 0.43197 1.1595 0 1.8567-0.81845 0.70478-0.82604 0.70478-2.1901v-0.31071h-1.3868zm2.7812-0.57595v4.8425h-1.3944v-1.2883q-0.47743 0.77298-1.1898 1.1443-0.71237 0.36376-1.743 0.36376-1.3034 0-2.0764-0.72752-0.76541-0.73509-0.76541-1.9628 0-1.4323 0.95486-2.1598 0.96245-0.7275 2.8646-0.7275h1.9552v-0.13641q0-0.96245-0.63658-1.4854-0.62899-0.53047-1.7733-0.53047-0.72752 0-1.4172 0.1743-0.68962 0.1743-1.3262 0.52289v-1.2883q0.7654-0.29556 1.4853-0.43953 0.71994-0.15157 1.402-0.15157 1.8415 0 2.7509 0.95486 0.90941 0.95487 0.90941 2.8949z"/>
   <path d="m204.22 327.18v8.4877h-1.402v-7.3737h-4.5242v7.3737h-1.402v-8.4877h7.3282z"/>
   <path d="m210.39 328.16q-1.1216 0-1.7733 0.87907-0.65172 0.87151-0.65172 2.3948 0 1.5232 0.64415 2.4023 0.65174 0.87149 1.7809 0.87149 1.114 0 1.7657-0.87908 0.65173-0.87908 0.65173-2.3947 0-1.5081-0.65173-2.3872-0.65173-0.88666-1.7657-0.88666zm0-1.1822q1.8188 0 2.857 1.1822t1.0382 3.2738q0 2.084-1.0382 3.2738-1.0382 1.1822-2.857 1.1822-1.8264 0-2.8646-1.1822-1.0307-1.1898-1.0307-3.2738 0-2.0916 1.0307-3.2738 1.0382-1.1822 2.8646-1.1822z"/>
   <path d="m216.53 327.18h2.0386l2.4099 5.6837 2.4175-5.6837h2.0234v8.4877h-1.402v-7.1539l-2.3417 5.5246h-1.3944l-2.3493-5.5246v7.1539h-1.402v-8.4877z"/>
   <path d="m231.58 328.16q-1.1216 0-1.7733 0.87907-0.65173 0.87151-0.65173 2.3948 0 1.5232 0.64416 2.4023 0.65173 0.87149 1.7809 0.87149 1.114 0 1.7657-0.87908 0.65174-0.87908 0.65174-2.3947 0-1.5081-0.65174-2.3872-0.65172-0.88666-1.7657-0.88666zm0-1.1822q1.8188 0 2.857 1.1822t1.0382 3.2738q0 2.084-1.0382 3.2738-1.0382 1.1822-2.857 1.1822-1.8264 0-2.8646-1.1822-1.0306-1.1898-1.0306-3.2738 0-2.0916 1.0306-3.2738 1.0382-1.1822 2.8646-1.1822z"/>
   <path d="m237.72 335.67v-8.4877h5.9868v1.114h-4.5849v7.3737h-1.402z"/>
   <path d="m249.79 331.41q-1.69 0-2.3417 0.38649-0.65172 0.38649-0.65172 1.3186 0 0.74267 0.485 1.1822 0.4926 0.43197 1.3338 0.43197 1.1595 0 1.8567-0.81845 0.70478-0.82604 0.70478-2.1901v-0.31071h-1.3868zm2.7812-0.57595v4.8425h-1.3944v-1.2883q-0.47743 0.77298-1.1898 1.1443-0.71236 0.36376-1.743 0.36376-1.3035 0-2.0764-0.72752-0.7654-0.73509-0.7654-1.9628 0-1.4323 0.95487-2.1598 0.96242-0.7275 2.8646-0.7275h1.9552v-0.13641q0-0.96245-0.63658-1.4854-0.629-0.53047-1.7733-0.53047-0.72752 0-1.4172 0.1743-0.68962 0.1743-1.3262 0.52289v-1.2883q0.7654-0.29556 1.4853-0.43953 0.71994-0.15157 1.402-0.15157 1.8415 0 2.7509 0.95486 0.9094 0.95487 0.9094 2.8949z"/>
   <path d="m262.71 331.08v0.68204h-6.4112q0.0909 1.4399 0.86393 2.1977 0.78057 0.75025 2.1674 0.75025 0.8033 0 1.5536-0.19704 0.75783-0.19703 1.5005-0.5911v1.3186q-0.75025 0.31828-1.5384 0.485-0.78813 0.16672-1.599 0.16672-2.031 0-3.2208-1.1822-1.1822-1.1822-1.1822-3.198 0-2.084 1.1216-3.3041 1.1292-1.2277 3.0389-1.2277 1.7127 0 2.7054 1.1064 1.0003 1.0989 1.0003 2.9934zm-1.3944-0.40923q-0.0152-1.1443-0.64416-1.8264-0.62142-0.68204-1.6521-0.68204-1.1671 0-1.8718 0.65931-0.69721 0.65931-0.8033 1.8567l4.9714-0.008z"/>
   <path d="m263.99 327.18h8.1315v1.114h-3.3799v7.3737h-1.3717v-7.3737h-3.3799v-1.114z"/>
   <path d="m286.25 327.18v8.4877h-1.402v-7.3737h-4.5242v7.3737h-1.402v-8.4877h7.3282z"/>
   <path d="m292.41 328.16q-1.1216 0-1.7733 0.87907-0.65174 0.87151-0.65174 2.3948 0 1.5232 0.64415 2.4023 0.65174 0.87149 1.7809 0.87149 1.114 0 1.7657-0.87908 0.65174-0.87908 0.65174-2.3947 0-1.5081-0.65174-2.3872-0.65174-0.88666-1.7657-0.88666zm0-1.1822q1.8188 0 2.857 1.1822t1.0382 3.2738q0 2.084-1.0382 3.2738-1.0382 1.1822-2.857 1.1822-1.8264 0-2.8646-1.1822-1.0306-1.1898-1.0306-3.2738 0-2.0916 1.0306-3.2738 1.0382-1.1822 2.8646-1.1822z"/>
   <path d="m300.51 334.56h4.0468v-6.2596h-2.9328v1.061q0 3.1222-0.89423 4.7895l-0.21978 0.40923zm-2.0234 0q0.68963-0.30312 0.99277-0.94728 0.74267-1.599 0.74267-4.8198v-1.6066h5.7368v7.3737h1.114v3.2587h-1.114v-2.1447h-6.8811v2.1447h-1.114v-3.2587h0.52289z"/>
   <path d="m311.24 334.56h4.0468v-6.2596h-2.9328v1.061q0 3.1222-0.89422 4.7895l-0.21978 0.40923zm-2.0234 0q0.68964-0.30312 0.99277-0.94728 0.74267-1.599 0.74267-4.8198v-1.6066h5.7368v7.3737h1.114v3.2587h-1.114v-2.1447h-6.8811v2.1447h-1.114v-3.2587h0.52289z"/>
   <path d="m327.34 331.08v0.68204h-6.4112q0.0909 1.4399 0.86391 2.1977 0.78056 0.75025 2.1674 0.75025 0.8033 0 1.5536-0.19704 0.75783-0.19703 1.5005-0.5911v1.3186q-0.75025 0.31828-1.5384 0.485-0.78814 0.16672-1.599 0.16672-2.031 0-3.2208-1.1822-1.1822-1.1822-1.1822-3.198 0-2.084 1.1216-3.3041 1.1292-1.2277 3.0389-1.2277 1.7127 0 2.7055 1.1064 1.0003 1.0989 1.0003 2.9934zm-1.3944-0.40923q-0.0152-1.1443-0.64414-1.8264-0.62143-0.68204-1.6521-0.68204-1.167 0-1.8718 0.65931-0.69719 0.65931-0.80329 1.8567l4.9714-0.008z"/>
   <path d="m330.97 334.4v4.5015h-1.402v-11.716h1.402v1.2883q0.43954-0.75784 1.1064-1.1216 0.67447-0.37134 1.6066-0.37134 1.546 0 2.5084 1.2277 0.97002 1.2277 0.97002 3.2284t-0.97002 3.2283q-0.96242 1.2277-2.5084 1.2277-0.93212 0-1.6066-0.36376-0.6669-0.37134-1.1064-1.1292zm4.744-2.9631q0-1.5384-0.63658-2.4099-0.62899-0.87908-1.7354-0.87908t-1.743 0.87908q-0.629 0.87151-0.629 2.4099t0.629 2.4175q0.63657 0.8715 1.743 0.8715t1.7354-0.8715q0.63658-0.87908 0.63658-2.4175z"/>
   <path d="m344.31 327.18h1.3868v3.9862l3.7058-3.9862h1.6218l-3.0465 3.2662 3.486 5.2214h-1.4929l-2.857-4.2893-1.4171 1.5232v2.7661h-1.3868v-2.7661l-1.4171-1.5232-2.857 4.2893h-1.4929l3.486-5.2214-3.0464-3.2662h1.6218l3.7058 3.9862v-3.9862z"/>
   <path d="m360.66 327.18v8.4877h-1.3868v-6.8129l-4.0923 6.8129h-1.7885v-8.4877h1.3868v6.7977l4.0847-6.7977h1.796z"/>
   <path d="m364.89 331.76v2.7964h1.9855q0.95485 0 1.455-0.35618 0.50017-0.36374 0.50017-1.0458 0-0.68205-0.50017-1.0382-0.50017-0.35618-1.455-0.35618h-1.9855zm0-3.4633v2.3493h1.834q0.78814 0 1.2883-0.31071 0.50018-0.31829 0.50018-0.87909 0-0.56078-0.50018-0.85634-0.50016-0.30312-1.2883-0.30312h-1.834zm-1.3944-1.114h3.3193q1.4929 0 2.2962 0.54563 0.80329 0.54563 0.80329 1.5535 0 0.78057-0.40922 1.2428-0.40923 0.45469-1.2125 0.56836 0.96243 0.18188 1.4929 0.75784 0.53048 0.57594 0.53048 1.4399 0 1.1368-0.87909 1.7582-0.8715 0.62143-2.4932 0.62143h-3.4481v-8.4877z"/>
   <path d="m376.56 331.41q-1.69 0-2.3417 0.38649-0.65173 0.38649-0.65173 1.3186 0 0.74267 0.48502 1.1822 0.49258 0.43197 1.3338 0.43197 1.1595 0 1.8567-0.81845 0.70477-0.82604 0.70477-2.1901v-0.31071h-1.3868zm2.7812-0.57595v4.8425h-1.3944v-1.2883q-0.47743 0.77298-1.1898 1.1443-0.71236 0.36376-1.743 0.36376-1.3035 0-2.0764-0.72752-0.7654-0.73509-0.7654-1.9628 0-1.4323 0.95486-2.1598 0.96244-0.7275 2.8646-0.7275h1.9552v-0.13641q0-0.96245-0.63658-1.4854-0.62899-0.53047-1.7733-0.53047-0.72751 0-1.4171 0.1743-0.68962 0.1743-1.3262 0.52289v-1.2883q0.7654-0.29556 1.4854-0.43953 0.71993-0.15157 1.402-0.15157 1.8415 0 2.7509 0.95486 0.90939 0.95487 0.90939 2.8949z"/>
   <path d="m381.21 327.18h8.1315v1.114h-3.3799v7.3737h-1.3717v-7.3737h-3.3799v-1.114z"/>
   <path d="m396.53 333.16q0-0.68205-0.50015-1.0382-0.4926-0.35618-1.4474-0.35618h-1.9855v2.7964h1.9855q0.95485 0 1.4474-0.35618 0.50015-0.36374 0.50015-1.0458zm-5.3351-5.9717h1.402v3.4633h2.0461q1.6218 0 2.4932 0.62143 0.87909 0.61383 0.87909 1.887t-0.87909 1.8946q-0.8715 0.62143-2.4932 0.62143h-3.4481v-8.4877z"/>
   <path d="m412.56 327.18v8.4877h-1.3868v-6.8129l-4.0923 6.8129h-1.7885v-8.4877h1.3868v6.7977l4.0847-6.7977h1.7961z"/>
   <path d="m421.73 334.4v4.5015h-1.402v-11.716h1.402v1.2883q0.43954-0.75784 1.1064-1.1216 0.67445-0.37134 1.6066-0.37134 1.546 0 2.5084 1.2277 0.97002 1.2277 0.97002 3.2284t-0.97002 3.2283q-0.96245 1.2277-2.5084 1.2277-0.93214 0-1.6066-0.36376-0.6669-0.37134-1.1064-1.1292zm4.744-2.9631q0-1.5384-0.63658-2.4099-0.62898-0.87908-1.7354-0.87908t-1.743 0.87908q-0.62901 0.87151-0.62901 2.4099t0.62901 2.4175q0.63657 0.8715 1.743 0.8715t1.7354-0.8715q0.63658-0.87908 0.63658-2.4175z"/>
   <path d="m434.09 331.41q-1.69 0-2.3417 0.38649-0.65172 0.38649-0.65172 1.3186 0 0.74267 0.48502 1.1822 0.49258 0.43197 1.3338 0.43197 1.1595 0 1.8567-0.81845 0.70478-0.82604 0.70478-2.1901v-0.31071h-1.3868zm2.7812-0.57595v4.8425h-1.3944v-1.2883q-0.47743 0.77298-1.1898 1.1443-0.71235 0.36376-1.743 0.36376-1.3035 0-2.0764-0.72752-0.7654-0.73509-0.7654-1.9628 0-1.4323 0.95487-2.1598 0.96243-0.7275 2.8646-0.7275h1.9552v-0.13641q0-0.96245-0.63658-1.4854-0.629-0.53047-1.7733-0.53047-0.72751 0-1.4171 0.1743-0.68963 0.1743-1.3262 0.52289v-1.2883q0.76541-0.29556 1.4853-0.43953 0.71993-0.15157 1.402-0.15157 1.8415 0 2.7509 0.95486 0.90938 0.95487 0.90938 2.8949z"/>
   <path d="m443.64 331.09q0.93971 0.18188 1.4626 0.7351 0.5229 0.55322 0.5229 1.3717 0 1.311-0.9776 2.0007-0.97759 0.68963-2.7812 0.68963-0.60627 0-1.2504-0.10611-0.63658-0.10611-1.3186-0.31828v-1.2959q0.53806 0.28041 1.1822 0.4244 0.64415 0.13639 1.3489 0.13639 1.1443 0 1.7809-0.42437 0.64415-0.42438 0.64415-1.1064 0-0.6669-0.56836-1.0685-0.56839-0.40924-1.6066-0.40924h-1.1216v-1.1519h1.1747q0.87908 0 1.3868-0.33345 0.51532-0.34102 0.51532-0.87151 0-0.48501-0.53048-0.83361-0.5229-0.3486-1.4247-0.3486-0.53805 0-1.1519 0.0985-0.60627 0.0985-1.3414 0.31828v-1.2656q0.74268-0.18187 1.3868-0.27281 0.64416-0.0909 1.2201-0.0909 1.4853 0 2.3417 0.59868 0.86391 0.59112 0.86391 1.6596 0 0.70479-0.45471 1.1974-0.45468 0.48501-1.3034 0.66688z"/>
   <path d="m449.34 331.76v2.7964h1.9855q0.95486 0 1.455-0.35618 0.50019-0.36374 0.50019-1.0458 0-0.68205-0.50019-1.0382-0.50016-0.35618-1.455-0.35618h-1.9855zm0-3.4633v2.3493h1.8339q0.78814 0 1.2883-0.31071 0.50016-0.31829 0.50016-0.87909 0-0.56078-0.50016-0.85634-0.50018-0.30312-1.2883-0.30312h-1.8339zm-1.3944-1.114h3.3193q1.4929 0 2.2962 0.54563t0.8033 1.5535q0 0.78057-0.40923 1.2428-0.40923 0.45469-1.2125 0.56836 0.96243 0.18188 1.4929 0.75784 0.53048 0.57594 0.53048 1.4399 0 1.1368-0.87908 1.7582-0.87151 0.62143-2.4933 0.62143h-3.4481v-8.4877z"/>
   <path d="m464.37 327.18v8.4877h-1.3868v-6.8129l-4.0923 6.8129h-1.7885v-8.4877h1.3868v6.7977l4.0847-6.7977h1.796z"/>
   <path d="m468.59 331.76v2.7964h1.9855q0.95486 0 1.455-0.35618 0.50017-0.36374 0.50017-1.0458 0-0.68205-0.50017-1.0382-0.50016-0.35618-1.455-0.35618h-1.9855zm0-3.4633v2.3493h1.834q0.78814 0 1.2883-0.31071 0.50016-0.31829 0.50016-0.87909 0-0.56078-0.50016-0.85634-0.50017-0.30312-1.2883-0.30312h-1.834zm-1.3944-1.114h3.3193q1.4929 0 2.2962 0.54563t0.8033 1.5535q0 0.78057-0.40922 1.2428-0.40923 0.45469-1.2125 0.56836 0.96244 0.18188 1.4929 0.75784 0.53048 0.57594 0.53048 1.4399 0 1.1368-0.87909 1.7582-0.87149 0.62143-2.4932 0.62143h-3.4481v-8.4877z"/>
   <path d="m480.26 331.41q-1.69 0-2.3417 0.38649-0.65174 0.38649-0.65174 1.3186 0 0.74267 0.48501 1.1822 0.49259 0.43197 1.3338 0.43197 1.1595 0 1.8567-0.81845 0.70478-0.82604 0.70478-2.1901v-0.31071h-1.3868zm2.7812-0.57595v4.8425h-1.3944v-1.2883q-0.47745 0.77298-1.1898 1.1443-0.71237 0.36376-1.743 0.36376-1.3035 0-2.0764-0.72752-0.76541-0.73509-0.76541-1.9628 0-1.4323 0.95486-2.1598 0.96244-0.7275 2.8646-0.7275h1.9552v-0.13641q0-0.96245-0.63657-1.4854-0.62901-0.53047-1.7733-0.53047-0.72751 0-1.4171 0.1743-0.68962 0.1743-1.3262 0.52289v-1.2883q0.76541-0.29556 1.4853-0.43953 0.71994-0.15157 1.402-0.15157 1.8415 0 2.7509 0.95486 0.90941 0.95487 0.90941 2.8949z"/>
   <path d="m484.91 327.18h8.1315v1.114h-3.3799v7.3737h-1.3717v-7.3737h-3.3799v-1.114z"/>
   <path d="m500.23 333.16q0-0.68205-0.50017-1.0382-0.49259-0.35618-1.4474-0.35618h-1.9855v2.7964h1.9855q0.95486 0 1.4474-0.35618 0.50017-0.36374 0.50017-1.0458zm-5.3351-5.9717h1.402v3.4633h2.0462q1.6217 0 2.4932 0.62143 0.87907 0.61383 0.87907 1.887t-0.87907 1.8946q-0.87151 0.62143-2.4932 0.62143h-3.4481v-8.4877z"/>
   <path d="m508.99 327.18h1.402v3.4633h4.5242v-3.4633h1.402v8.4877h-1.402v-3.9104h-4.5242v3.9104h-1.402v-8.4877z"/>
   <path d="m523.06 331.41q-1.69 0-2.3417 0.38649-0.65174 0.38649-0.65174 1.3186 0 0.74267 0.48502 1.1822 0.49258 0.43197 1.3338 0.43197 1.1595 0 1.8567-0.81845 0.70479-0.82604 0.70479-2.1901v-0.31071h-1.3868zm2.7812-0.57595v4.8425h-1.3944v-1.2883q-0.47745 0.77298-1.1898 1.1443-0.71236 0.36376-1.743 0.36376-1.3035 0-2.0764-0.72752-0.76541-0.73509-0.76541-1.9628 0-1.4323 0.95487-2.1598 0.96243-0.7275 2.8646-0.7275h1.9552v-0.13641q0-0.96245-0.63659-1.4854-0.62899-0.53047-1.7733-0.53047-0.72751 0-1.4171 0.1743-0.68963 0.1743-1.3262 0.52289v-1.2883q0.76541-0.29556 1.4853-0.43953 0.71995-0.15157 1.402-0.15157 1.8415 0 2.7509 0.95486 0.9094 0.95487 0.9094 2.8949z"/>
   <path d="m535.06 334.56h3.5921v-7.3737h1.402v8.4877h-11.383v-8.4877h1.402v7.3737h3.5845v-7.3737h1.402v7.3737z"/>
   <path d="m550.15 327.18v8.4877h-1.3868v-6.8129l-4.0923 6.8129h-1.7885v-8.4877h1.3868v6.7977l4.0847-6.7977h1.796z"/>
   <path d="m564.08 327.51v1.3034q-0.59112-0.32587-1.1898-0.48499-0.59111-0.16673-1.1974-0.16673-1.3565 0-2.1068 0.86392-0.75025 0.85635-0.75025 2.4099t0.75025 2.4175q0.75025 0.85634 2.1068 0.85634 0.60626 0 1.1974-0.15914 0.59868-0.16673 1.1898-0.4926v1.2883q-0.58353 0.27282-1.2126 0.40922-0.62141 0.13641-1.3262 0.13641-1.9173 0-3.0465-1.2049-1.1292-1.205-1.1292-3.2511 0-2.0764 1.1368-3.2662 1.1443-1.1898 3.1298-1.1898 0.64416 0 1.258 0.13641 0.61384 0.12882 1.1898 0.39408z"/>
   <path d="m573.78 331.08v0.68204h-6.4112q0.0909 1.4399 0.86393 2.1977 0.78055 0.75025 2.1674 0.75025 0.80331 0 1.5536-0.19704 0.75784-0.19703 1.5005-0.5911v1.3186q-0.75026 0.31828-1.5384 0.485-0.78813 0.16672-1.599 0.16672-2.031 0-3.2208-1.1822-1.1822-1.1822-1.1822-3.198 0-2.084 1.1216-3.3041 1.1292-1.2277 3.0389-1.2277 1.7127 0 2.7055 1.1064 1.0003 1.0989 1.0003 2.9934zm-1.3944-0.40923q-0.0152-1.1443-0.64416-1.8264-0.62142-0.68204-1.6521-0.68204-1.167 0-1.8718 0.65931-0.69721 0.65931-0.8033 1.8567l4.9714-0.008z"/>
   <path d="m577.42 334.4v4.5015h-1.402v-11.716h1.402v1.2883q0.43955-0.75784 1.1064-1.1216 0.67447-0.37134 1.6066-0.37134 1.546 0 2.5084 1.2277 0.97001 1.2277 0.97001 3.2284t-0.97001 3.2283q-0.96244 1.2277-2.5084 1.2277-0.93212 0-1.6066-0.36376-0.66689-0.37134-1.1064-1.1292zm4.744-2.9631q0-1.5384-0.63656-2.4099-0.629-0.87908-1.7354-0.87908t-1.743 0.87908q-0.629 0.87151-0.629 2.4099t0.629 2.4175q0.63658 0.8715 1.743 0.8715t1.7354-0.8715q0.63656-0.87908 0.63656-2.4175z"/>
   <path d="m587.26 331.76v2.7964h1.9855q0.95487 0 1.455-0.35618 0.50018-0.36374 0.50018-1.0458 0-0.68205-0.50018-1.0382-0.50015-0.35618-1.455-0.35618h-1.9855zm0-3.4633v2.3493h1.834q0.78814 0 1.2883-0.31071 0.50016-0.31829 0.50016-0.87909 0-0.56078-0.50016-0.85634-0.50017-0.30312-1.2883-0.30312h-1.834zm-1.3944-1.114h3.3193q1.4929 0 2.2962 0.54563t0.8033 1.5535q0 0.78057-0.40922 1.2428-0.40923 0.45469-1.2125 0.56836 0.96244 0.18188 1.4929 0.75784 0.53048 0.57594 0.53048 1.4399 0 1.1368-0.87908 1.7582-0.87151 0.62143-2.4933 0.62143h-3.4481v-8.4877z"/>
   <path d="m602.29 327.18v8.4877h-1.3868v-6.8129l-4.0923 6.8129h-1.7885v-8.4877h1.3868v6.7977l4.0847-6.7977h1.7961z"/>
   <path d="m611.28 327.51v1.3034q-0.59109-0.32587-1.1898-0.48499-0.5911-0.16673-1.1974-0.16673-1.3565 0-2.1068 0.86392-0.75024 0.85635-0.75024 2.4099t0.75024 2.4175q0.75025 0.85634 2.1068 0.85634 0.60627 0 1.1974-0.15914 0.59869-0.16673 1.1898-0.4926v1.2883q-0.58352 0.27282-1.2125 0.40922-0.62143 0.13641-1.3262 0.13641-1.9173 0-3.0465-1.2049-1.1292-1.205-1.1292-3.2511 0-2.0764 1.1367-3.2662 1.1443-1.1898 3.1298-1.1898 0.64416 0 1.258 0.13641 0.61385 0.12882 1.1898 0.39408z"/>
   <path d="m621.74 327.18h1.3944v8.4877h-1.3944v-8.4877zm0.6972-0.20462zm-3.433 6.1763q0-0.68205-0.50018-1.0382-0.49259-0.35618-1.4474-0.35618h-1.9855v2.7964h1.9855q0.95486 0 1.4474-0.35618 0.50018-0.36374 0.50018-1.0458zm-5.3351-5.9717h1.402v3.4633h2.0461q1.6218 0 2.4933 0.62143 0.87908 0.61383 0.87908 1.887t-0.87908 1.8946q-0.8715 0.62143-2.4933 0.62143h-3.4481v-8.4877z"/>
   <path d="m187.33 343.76v11.314h-1.4853v-9.4653l-5.0168 9.4653h-2.0613v-11.314h1.4854v9.4653l5.0168-9.4653h2.0613z"/>
   <path d="m196.43 346.91v1.3035q-0.59111-0.32587-1.1898-0.48501-0.59111-0.16673-1.1974-0.16673-1.3565 0-2.1068 0.86393-0.75026 0.85635-0.75026 2.4099t0.75026 2.4175q0.75025 0.85633 2.1068 0.85633 0.60625 0 1.1974-0.15914 0.59868-0.16671 1.1898-0.49258v1.2883q-0.58353 0.27282-1.2125 0.40923-0.62141 0.13641-1.3262 0.13641-1.9173 0-3.0465-1.205-1.1292-1.2049-1.1292-3.2511 0-2.0764 1.1368-3.2662 1.1443-1.1898 3.1298-1.1898 0.64415 0 1.258 0.13641 0.61384 0.12884 1.1898 0.39408z"/>
   <path d="m198.82 346.58h1.3868v3.9862l3.9331-3.9862h1.7127l-3.2435 3.2814 3.6603 5.2063h-1.5611l-3.0086-4.2817-1.4929 1.5156v2.7661h-1.3868v-8.4877z"/>
   <path d="m209.58 353.8v4.5015h-1.402v-11.716h1.402v1.2883q0.43954-0.75782 1.1064-1.1216 0.67447-0.37134 1.6066-0.37134 1.546 0 2.5084 1.2277 0.97003 1.2277 0.97003 3.2284t-0.97003 3.2283q-0.96244 1.2277-2.5084 1.2277-0.93213 0-1.6066-0.36377-0.66689-0.37133-1.1064-1.1292zm4.744-2.9631q0-1.5384-0.63658-2.4099-0.629-0.87909-1.7354-0.87909t-1.743 0.87909q-0.62899 0.87151-0.62899 2.4099t0.62899 2.4175q0.63658 0.87149 1.743 0.87149t1.7354-0.87149q0.63658-0.87908 0.63658-2.4175z"/>
   <path d="m225.35 350.48v0.68205h-6.4112q0.0909 1.4399 0.86392 2.1977 0.78057 0.75023 2.1674 0.75023 0.8033 0 1.5536-0.19702 0.75783-0.19703 1.5005-0.59111v1.3186q-0.75025 0.31828-1.5384 0.48501-0.78814 0.16673-1.599 0.16673-2.031 0-3.2208-1.1822-1.1822-1.1822-1.1822-3.198 0-2.084 1.1216-3.3041 1.1292-1.2277 3.0389-1.2277 1.7127 0 2.7054 1.1064 1.0003 1.0988 1.0003 2.9934zm-1.3944-0.40923q-0.0152-1.1443-0.64415-1.8264-0.62142-0.68206-1.6521-0.68206-1.167 0-1.8718 0.65931-0.6972 0.65932-0.8033 1.8567l4.9714-0.008z"/>
   <path d="m227.58 346.58h1.402v3.4633h4.5242v-3.4633h1.402v8.4877h-1.402v-3.9104h-4.5242v3.9104h-1.402v-8.4877z"/>
   <path d="m237.74 346.58h1.402v3.4633h4.5242v-3.4633h1.402v8.4877h-1.402v-3.9104h-4.5242v3.9104h-1.402v-8.4877z"/>
   <path d="m255.21 350.48v0.68205h-6.4112q0.0909 1.4399 0.86392 2.1977 0.78056 0.75023 2.1674 0.75023 0.8033 0 1.5536-0.19702 0.75782-0.19703 1.5005-0.59111v1.3186q-0.75024 0.31828-1.5384 0.48501-0.78813 0.16673-1.599 0.16673-2.031 0-3.2208-1.1822-1.1822-1.1822-1.1822-3.198 0-2.084 1.1216-3.3041 1.1292-1.2277 3.0389-1.2277 1.7127 0 2.7054 1.1064 1.0003 1.0988 1.0003 2.9934zm-1.3944-0.40923q-0.0152-1.1443-0.64415-1.8264-0.62141-0.68206-1.6521-0.68206-1.167 0-1.8718 0.65931-0.69722 0.65932-0.8033 1.8567l4.9713-0.008z"/>
   <path d="m265.8 346.38q1.8188 0 2.857 1.1822t1.0382 3.2738q0 2.084-1.0382 3.2738-1.0382 1.1822-2.857 1.1822-1.8264 0-2.8343-1.1519t-1.061-3.3041l-0.0454-1.7354q-0.0379-0.90181-0.0379-1.2125 0-1.2125 0.43954-2.1068 0.68961-1.402 1.8794-2.0082 1.1974-0.60625 3.198-0.62141 0.92454-0.008 1.3338-0.13641l0.38649 1.1064q-0.37133 0.15157-0.71236 0.15914l-1.8946 0.12882q-0.95487 0.0683-1.5308 0.40166-1.5081 0.88666-1.6521 2.0461l-0.053 0.4244q0.98518-0.90183 2.5842-0.90183zm0 1.1822q-1.1216 0-1.7733 0.87909-0.65173 0.8715-0.65173 2.3947t0.64416 2.4023q0.65173 0.87148 1.7809 0.87148 1.114 0 1.7657-0.87907 0.65172-0.87909 0.65172-2.3947 0-1.5081-0.65172-2.3872-0.65172-0.88667-1.7657-0.88667z"/>
   <path d="m271.13 355.07v-1.1595q1.3793-0.21219 1.8036-1.167 0.51533-1.3414 0.51533-4.7743v-1.3868h5.7368v8.4877h-1.3944v-7.3737h-2.9479v0.8412q0 3.2738-0.6669 4.744-0.71235 1.5687-3.0465 1.7885z"/>
   <path d="m285.78 350.81q-1.69 0-2.3417 0.3865-0.65172 0.38648-0.65172 1.3186 0 0.74268 0.485 1.1822 0.49259 0.43195 1.3338 0.43195 1.1595 0 1.8567-0.81845 0.70477-0.82604 0.70477-2.1901v-0.31072h-1.3868zm2.7812-0.57595v4.8425h-1.3944v-1.2883q-0.47743 0.77298-1.1898 1.1443-0.71235 0.36377-1.743 0.36377-1.3035 0-2.0764-0.72752-0.76541-0.7351-0.76541-1.9628 0-1.4323 0.95485-2.1598 0.96245-0.72752 2.8646-0.72752h1.9552v-0.13641q0-0.96245-0.63657-1.4853-0.62899-0.53049-1.7733-0.53049-0.72751 0-1.4171 0.1743-0.68962 0.17431-1.3262 0.52291v-1.2883q0.7654-0.29555 1.4853-0.43954 0.71994-0.15157 1.402-0.15157 1.8415 0 2.7509 0.95486 0.90939 0.95488 0.90939 2.8949z"/>
   <path d="m291.39 355.07v-8.4877h5.9868v1.114h-4.5848v7.3737h-1.402z"/>
   <path d="m302.89 347.56q-1.1216 0-1.7733 0.87909-0.65174 0.8715-0.65174 2.3947t0.64416 2.4023q0.65174 0.87148 1.7809 0.87148 1.114 0 1.7657-0.87907 0.65173-0.87909 0.65173-2.3947 0-1.5081-0.65173-2.3872-0.65172-0.88667-1.7657-0.88667zm0-1.1822q1.8188 0 2.857 1.1822t1.0382 3.2738q0 2.084-1.0382 3.2738-1.0382 1.1822-2.857 1.1822-1.8264 0-2.8646-1.1822-1.0306-1.1898-1.0306-3.2738 0-2.0916 1.0306-3.2738 1.0382-1.1822 2.8646-1.1822z"/>
   <path d="m310.98 353.96h4.0468v-6.2596h-2.9328v1.061q0 3.1222-0.89424 4.7895l-0.21976 0.4092zm-2.0234 0q0.68962-0.30311 0.99275-0.94727 0.74268-1.599 0.74268-4.8198v-1.6066h5.7368v7.3737h1.114v3.2587h-1.114v-2.1446h-6.8811v2.1446h-1.114v-3.2587h0.5229z"/>
   <path d="m323.68 350.81q-1.69 0-2.3417 0.3865-0.65173 0.38648-0.65173 1.3186 0 0.74268 0.485 1.1822 0.49259 0.43195 1.3338 0.43195 1.1595 0 1.8567-0.81845 0.70478-0.82604 0.70478-2.1901v-0.31072h-1.3868zm2.7812-0.57595v4.8425h-1.3944v-1.2883q-0.47745 0.77298-1.1898 1.1443-0.71235 0.36377-1.743 0.36377-1.3035 0-2.0764-0.72752-0.76541-0.7351-0.76541-1.9628 0-1.4323 0.95487-2.1598 0.96244-0.72752 2.8646-0.72752h1.9552v-0.13641q0-0.96245-0.63659-1.4853-0.62899-0.53049-1.7733-0.53049-0.72751 0-1.4171 0.1743-0.68962 0.17431-1.3262 0.52291v-1.2883q0.7654-0.29555 1.4854-0.43954 0.71993-0.15157 1.402-0.15157 1.8415 0 2.7509 0.95486 0.90941 0.95488 0.90941 2.8949z"/>
   <path d="m330.69 353.8v4.5015h-1.402v-11.716h1.402v1.2883q0.43954-0.75782 1.1064-1.1216 0.67447-0.37134 1.6066-0.37134 1.546 0 2.5084 1.2277 0.97002 1.2277 0.97002 3.2284t-0.97002 3.2283q-0.96245 1.2277-2.5084 1.2277-0.93214 0-1.6066-0.36377-0.66688-0.37133-1.1064-1.1292zm4.744-2.9631q0-1.5384-0.63658-2.4099-0.62898-0.87909-1.7354-0.87909t-1.743 0.87909q-0.62899 0.87151-0.62899 2.4099t0.62899 2.4175q0.63659 0.87149 1.743 0.87149t1.7354-0.87149q0.63658-0.87908 0.63658-2.4175z"/>
   <path d="m346.4 346.58v8.4877h-1.3868v-6.8129l-4.0923 6.8129h-1.7885v-8.4877h1.3868v6.7977l4.0847-6.7977h1.796z"/>
   <path d="m349.23 346.58h2.0385l2.4099 5.6837 2.4175-5.6837h2.0234v8.4877h-1.402v-7.1539l-2.3417 5.5246h-1.3944l-2.3493-5.5246v7.1539h-1.402v-8.4877z"/>
   <path d="m369.81 350.49q0.9397 0.18188 1.4626 0.7351 0.52289 0.55321 0.52289 1.3717 0 1.311-0.97759 2.0007-0.97759 0.68963-2.7812 0.68963-0.60627 0-1.2504-0.10611-0.63657-0.10611-1.3186-0.3183v-1.2959q0.53806 0.2804 1.1822 0.42438 0.64414 0.13642 1.3489 0.13642 1.1443 0 1.7809-0.42438 0.64416-0.42439 0.64416-1.1064 0-0.66688-0.56836-1.0685-0.56838-0.40922-1.6066-0.40922h-1.1216v-1.1519h1.1746q0.87908 0 1.3868-0.33344 0.51532-0.34102 0.51532-0.87151 0-0.48501-0.53048-0.83361-0.5229-0.34861-1.4247-0.34861-0.53804 0-1.1519 0.0985-0.60627 0.0985-1.3414 0.3183v-1.2656q0.74269-0.18187 1.3868-0.27281 0.64415-0.0909 1.2201-0.0909 1.4853 0 2.3417 0.59868 0.86393 0.5911 0.86393 1.6596 0 0.70478-0.45471 1.1974-0.45468 0.48501-1.3034 0.66688z"/>
   <path d="m378.03 350.81q-1.69 0-2.3417 0.3865-0.65174 0.38648-0.65174 1.3186 0 0.74268 0.48501 1.1822 0.49258 0.43195 1.3338 0.43195 1.1595 0 1.8567-0.81845 0.70477-0.82604 0.70477-2.1901v-0.31072h-1.3868zm2.7812-0.57595v4.8425h-1.3944v-1.2883q-0.47744 0.77298-1.1898 1.1443-0.71235 0.36377-1.743 0.36377-1.3035 0-2.0764-0.72752-0.76541-0.7351-0.76541-1.9628 0-1.4323 0.95487-2.1598 0.96245-0.72752 2.8646-0.72752h1.9552v-0.13641q0-0.96245-0.63657-1.4853-0.62901-0.53049-1.7733-0.53049-0.72751 0-1.4171 0.1743-0.68962 0.17431-1.3262 0.52291v-1.2883q0.76539-0.29555 1.4853-0.43954 0.71994-0.15157 1.402-0.15157 1.8415 0 2.7509 0.95486 0.90939 0.95488 0.90939 2.8949z"/>
   <path d="m395.9 346.58v8.4877h-1.402v-7.3737h-4.5242v7.3737h-1.402v-8.4877h7.3282z"/>
   <path d="m402.07 347.56q-1.1216 0-1.7733 0.87909-0.65173 0.8715-0.65173 2.3947t0.64416 2.4023q0.65174 0.87148 1.7809 0.87148 1.114 0 1.7657-0.87907 0.65174-0.87909 0.65174-2.3947 0-1.5081-0.65174-2.3872-0.65173-0.88667-1.7657-0.88667zm0-1.1822q1.8188 0 2.857 1.1822t1.0382 3.2738q0 2.084-1.0382 3.2738-1.0382 1.1822-2.857 1.1822-1.8264 0-2.8646-1.1822-1.0306-1.1898-1.0306-3.2738 0-2.0916 1.0306-3.2738 1.0382-1.1822 2.8646-1.1822z"/>
   <path d="m408.22 346.58h2.0386l2.4099 5.6837 2.4175-5.6837h2.0234v8.4877h-1.402v-7.1539l-2.3417 5.5246h-1.3944l-2.3493-5.5246v7.1539h-1.402v-8.4877z"/>
   <path d="m423.26 347.56q-1.1216 0-1.7733 0.87909-0.65174 0.8715-0.65174 2.3947t0.64415 2.4023q0.65174 0.87148 1.7809 0.87148 1.114 0 1.7657-0.87907 0.65174-0.87909 0.65174-2.3947 0-1.5081-0.65174-2.3872-0.65172-0.88667-1.7657-0.88667zm0-1.1822q1.8188 0 2.857 1.1822t1.0382 3.2738q0 2.084-1.0382 3.2738-1.0382 1.1822-2.857 1.1822-1.8264 0-2.8646-1.1822-1.0306-1.1898-1.0306-3.2738 0-2.0916 1.0306-3.2738 1.0382-1.1822 2.8646-1.1822z"/>
   <path d="m440.79 355.07h-11.383v-8.4877h1.402v7.3737h3.5845v-7.3737h1.402v7.3737h3.5921v-7.3737h1.402v7.3737h1.114v3.2587h-1.114v-2.1446z"/>
   <path d="m449.35 352.56q0-0.68204-0.50018-1.0382-0.49258-0.35617-1.4474-0.35617h-1.9855v2.7964h1.9855q0.95487 0 1.4474-0.35616 0.50018-0.36375 0.50018-1.0458zm-5.3351-5.9717h1.402v3.4633h2.0461q1.6218 0 2.4933 0.62142 0.87907 0.61385 0.87907 1.887t-0.87907 1.8946q-0.8715 0.62143-2.4933 0.62143h-3.4481v-8.4877z"/>
   <path d="m465.38 346.58v8.4877h-1.3868v-6.8129l-4.0923 6.8129h-1.7885v-8.4877h1.3868v6.7977l4.0847-6.7977h1.796z"/>
   <path d="m480.48 346.58v8.4877h-1.402v-7.3737h-4.5242v7.3737h-1.402v-8.4877h7.3282z"/>
   <path d="m486.65 347.56q-1.1216 0-1.7733 0.87909-0.65173 0.8715-0.65173 2.3947t0.64415 2.4023q0.65172 0.87148 1.7809 0.87148 1.114 0 1.7657-0.87907 0.65175-0.87909 0.65175-2.3947 0-1.5081-0.65175-2.3872-0.65173-0.88667-1.7657-0.88667zm0-1.1822q1.8188 0 2.857 1.1822t1.0382 3.2738q0 2.084-1.0382 3.2738-1.0382 1.1822-2.857 1.1822-1.8264 0-2.8646-1.1822-1.0306-1.1898-1.0306-3.2738 0-2.0916 1.0306-3.2738 1.0382-1.1822 2.8646-1.1822z"/>
   <path d="m492.79 346.58h1.402v3.4633h4.5242v-3.4633h1.402v8.4877h-1.402v-3.9104h-4.5242v3.9104h-1.402v-8.4877z"/>
   <path d="m510.21 346.58v8.4877h-1.3868v-6.8129l-4.0923 6.8129h-1.7885v-8.4877h1.3868v6.7977l4.0847-6.7977h1.7961z"/>
   <path d="m513.04 346.58h2.0386l2.4099 5.6837 2.4175-5.6837h2.0234v8.4877h-1.402v-7.1539l-2.3417 5.5246h-1.3944l-2.3492-5.5246v7.1539h-1.402v-8.4877z"/>
   <path d="m528.65 350.81q-1.69 0-2.3417 0.3865-0.65173 0.38648-0.65173 1.3186 0 0.74268 0.48501 1.1822 0.49258 0.43195 1.3338 0.43195 1.1595 0 1.8567-0.81845 0.70478-0.82604 0.70478-2.1901v-0.31072h-1.3868zm2.7812-0.57595v4.8425h-1.3944v-1.2883q-0.47744 0.77298-1.1898 1.1443-0.71235 0.36377-1.743 0.36377-1.3035 0-2.0764-0.72752-0.76541-0.7351-0.76541-1.9628 0-1.4323 0.95487-2.1598 0.96244-0.72752 2.8646-0.72752h1.9552v-0.13641q0-0.96245-0.63656-1.4853-0.62902-0.53049-1.7733-0.53049-0.72753 0-1.4172 0.1743-0.68963 0.17431-1.3262 0.52291v-1.2883q0.76541-0.29555 1.4853-0.43954 0.71995-0.15157 1.402-0.15157 1.8415 0 2.7509 0.95486 0.90941 0.95488 0.90941 2.8949z"/>
   <path d="m534.26 346.58h1.402v3.4633h4.5242v-3.4633h1.402v8.4877h-1.402v-3.9104h-4.5242v3.9104h-1.402v-8.4877z"/>
   <path d="m551.68 346.58v8.4877h-1.3868v-6.8129l-4.0923 6.8129h-1.7885v-8.4877h1.3868v6.7977l4.0847-6.7977h1.796z"/>
   <path d="m561.82 350.48v0.68205h-6.4112q0.0909 1.4399 0.86393 2.1977 0.78057 0.75023 2.1674 0.75023 0.80329 0 1.5535-0.19702 0.75784-0.19703 1.5005-0.59111v1.3186q-0.75025 0.31828-1.5384 0.48501-0.78814 0.16673-1.599 0.16673-2.031 0-3.2208-1.1822-1.1822-1.1822-1.1822-3.198 0-2.084 1.1216-3.3041 1.1292-1.2277 3.0389-1.2277 1.7127 0 2.7054 1.1064 1.0003 1.0988 1.0003 2.9934zm-1.3944-0.40923q-0.0152-1.1443-0.64415-1.8264-0.62142-0.68206-1.6521-0.68206-1.167 0-1.8718 0.65931-0.6972 0.65932-0.80329 1.8567l4.9713-0.008z"/>
   <path d="m564.99 353.15h1.5384v1.9249h-1.5384v-1.9249zm0-9.3895h1.5384v4.9638l-0.15157 2.7055h-1.2277l-0.15915-2.7055v-4.9638z"/>
  </g>
 </g>
</svg>
